<svg width="111" height="147" viewBox="0 0 111 147" fill="none" xmlns="http://www.w3.org/2000/svg">
<path d="M39.043 142L44.4698 131.261V131.172H38.1481V128.909H47.3335V131.204L41.9002 142H39.043ZM48.5103 142V140.006L53.1701 135.691C53.5664 135.308 53.8988 134.962 54.1673 134.656C54.44 134.349 54.6467 134.048 54.7873 133.754C54.9279 133.456 54.9982 133.134 54.9982 132.789C54.9982 132.406 54.9109 132.075 54.7362 131.798C54.5614 131.517 54.3228 131.302 54.0202 131.153C53.7177 130.999 53.3746 130.923 52.9911 130.923C52.5906 130.923 52.2411 131.004 51.9428 131.165C51.6445 131.327 51.4144 131.56 51.2525 131.862C51.0906 132.165 51.0096 132.525 51.0096 132.942H48.3825C48.3825 132.086 48.5763 131.342 48.9641 130.712C49.3519 130.081 49.8952 129.593 50.5941 129.248C51.293 128.903 52.0984 128.73 53.0103 128.73C53.9478 128.73 54.7638 128.896 55.4585 129.229C56.1573 129.557 56.7006 130.013 57.0884 130.597C57.4762 131.18 57.6701 131.849 57.6701 132.604C57.6701 133.098 57.5721 133.586 57.3761 134.067C57.1843 134.549 56.8413 135.084 56.3469 135.672C55.8526 136.256 55.1559 136.957 54.2567 137.775L52.3455 139.648V139.737H57.8427V142H48.5103ZM66.2937 139.545V138.855C66.2937 138.331 66.4045 137.849 66.6261 137.411C66.8519 136.967 67.1779 136.614 67.604 136.349C68.0344 136.081 68.5586 135.947 69.1765 135.947C69.8029 135.947 70.3292 136.079 70.7553 136.343C71.1857 136.607 71.5096 136.961 71.7269 137.404C71.9485 137.843 72.0593 138.327 72.0593 138.855V139.545C72.0593 140.07 71.9485 140.553 71.7269 140.996C71.5053 141.435 71.1793 141.787 70.7489 142.051C70.3185 142.32 69.7944 142.454 69.1765 142.454C68.5501 142.454 68.0238 142.32 67.5976 142.051C67.1715 141.787 66.8476 141.435 66.6261 140.996C66.4045 140.553 66.2937 140.07 66.2937 139.545ZM68.1538 138.855V139.545C68.1538 139.848 68.2262 140.134 68.3711 140.402C68.5202 140.67 68.7887 140.805 69.1765 140.805C69.5643 140.805 69.8285 140.673 69.9691 140.408C70.114 140.144 70.1864 139.857 70.1864 139.545V138.855C70.1864 138.544 70.1182 138.254 69.9819 137.986C69.8455 137.717 69.5771 137.583 69.1765 137.583C68.793 137.583 68.5266 137.717 68.3775 137.986C68.2283 138.254 68.1538 138.544 68.1538 138.855ZM59.5756 132.054V131.364C59.5756 130.835 59.6886 130.352 59.9144 129.913C60.1403 129.469 60.4663 129.116 60.8924 128.852C61.3228 128.587 61.8427 128.455 62.4521 128.455C63.0827 128.455 63.6111 128.587 64.0373 128.852C64.4634 129.116 64.7873 129.469 65.0089 129.913C65.2305 130.352 65.3413 130.835 65.3413 131.364V132.054C65.3413 132.582 65.2283 133.066 65.0025 133.505C64.7809 133.944 64.4549 134.295 64.0245 134.56C63.5984 134.82 63.0742 134.95 62.4521 134.95C61.8299 134.95 61.3036 134.817 60.8732 134.553C60.4471 134.285 60.1232 133.933 59.9016 133.499C59.6843 133.06 59.5756 132.578 59.5756 132.054ZM61.4485 131.364V132.054C61.4485 132.365 61.5209 132.653 61.6658 132.917C61.815 133.181 62.0771 133.313 62.4521 133.313C62.8441 133.313 63.1104 133.181 63.2511 132.917C63.3959 132.653 63.4684 132.365 63.4684 132.054V131.364C63.4684 131.053 63.4002 130.763 63.2638 130.494C63.1275 130.226 62.8569 130.092 62.4521 130.092C62.0728 130.092 61.8107 130.228 61.6658 130.501C61.5209 130.773 61.4485 131.061 61.4485 131.364ZM60.4194 142L69.4194 128.909H71.0941L62.0941 142H60.4194Z" fill="url(#paint0_linear_0_338)"/>
<circle cx="55.5" cy="55.5" r="55.5" fill="#F1F4F8"/>
<mask id="path-3-inside-1_0_338" fill="white">
<path d="M55.5 2.22C55.5 0.993927 56.4944 -0.00463519 57.7195 0.0443881C67.4762 0.434813 76.9718 3.39368 85.2384 8.6398C94.1306 14.283 101.234 22.3398 105.718 31.8692C110.202 41.3987 111.882 52.0073 110.562 62.456C109.242 72.9047 104.977 82.7622 98.2635 90.877C91.5503 98.9919 82.6667 105.029 72.6504 108.284C62.6341 111.538 51.8986 111.876 41.6977 109.256C31.4968 106.637 22.2517 101.17 15.0422 93.4924C8.34005 86.3553 3.65429 77.5823 1.44256 68.0716C1.16485 66.8774 1.95938 65.7134 3.16374 65.4837C4.36809 65.2539 5.52582 66.0456 5.80769 67.2388C7.85886 75.9221 12.1535 83.9301 18.2789 90.453C24.9116 97.5161 33.4171 102.546 42.8019 104.956C52.1867 107.365 62.0634 107.055 71.2784 104.061C80.4934 101.067 88.6663 95.5125 94.8424 88.0469C101.019 80.5812 104.943 71.5123 106.157 61.8995C107.372 52.2867 105.826 42.5268 101.7 33.7597C97.575 24.9926 91.0402 17.5804 82.8593 12.3886C75.3042 7.594 66.6333 4.87601 57.7194 4.48825C56.4945 4.43496 55.5 3.44607 55.5 2.22Z"/>
</mask>
<path d="M55.5 2.22C55.5 0.993927 56.4944 -0.00463519 57.7195 0.0443881C67.4762 0.434813 76.9718 3.39368 85.2384 8.6398C94.1306 14.283 101.234 22.3398 105.718 31.8692C110.202 41.3987 111.882 52.0073 110.562 62.456C109.242 72.9047 104.977 82.7622 98.2635 90.877C91.5503 98.9919 82.6667 105.029 72.6504 108.284C62.6341 111.538 51.8986 111.876 41.6977 109.256C31.4968 106.637 22.2517 101.17 15.0422 93.4924C8.34005 86.3553 3.65429 77.5823 1.44256 68.0716C1.16485 66.8774 1.95938 65.7134 3.16374 65.4837C4.36809 65.2539 5.52582 66.0456 5.80769 67.2388C7.85886 75.9221 12.1535 83.9301 18.2789 90.453C24.9116 97.5161 33.4171 102.546 42.8019 104.956C52.1867 107.365 62.0634 107.055 71.2784 104.061C80.4934 101.067 88.6663 95.5125 94.8424 88.0469C101.019 80.5812 104.943 71.5123 106.157 61.8995C107.372 52.2867 105.826 42.5268 101.7 33.7597C97.575 24.9926 91.0402 17.5804 82.8593 12.3886C75.3042 7.594 66.6333 4.87601 57.7194 4.48825C56.4945 4.43496 55.5 3.44607 55.5 2.22Z" stroke="url(#paint1_linear_0_338)" stroke-width="18.9817" mask="url(#path-3-inside-1_0_338)"/>
<path d="M48.7385 32.8182V59H43.203V32.8182H48.7385ZM58.5283 32.8182V59H52.9928V32.8182H58.5283ZM68.3182 32.8182V59H62.7827V32.8182H68.3182Z" fill="url(#paint2_linear_0_338)"/>
<path d="M38.6889 80.8619C38.0753 80.8619 37.5469 80.7171 37.1037 80.4273C36.6605 80.1375 36.3196 79.7384 36.081 79.2298C35.8423 78.7213 35.723 78.1404 35.723 77.4869C35.723 76.8222 35.8452 76.2355 36.0895 75.727C36.3366 75.2156 36.6804 74.8165 37.1207 74.5296C37.5639 74.2398 38.081 74.0949 38.6719 74.0949C39.1321 74.0949 39.5469 74.1801 39.9162 74.3506C40.2855 74.521 40.5881 74.7597 40.8239 75.0665C41.0597 75.3733 41.206 75.7313 41.2628 76.1404H40.2571C40.1804 75.8421 40.0099 75.5779 39.7457 75.3477C39.4844 75.1148 39.1321 74.9983 38.6889 74.9983C38.2969 74.9983 37.9531 75.1006 37.6577 75.3051C37.3651 75.5068 37.1364 75.7923 36.9716 76.1617C36.8097 76.5281 36.7287 76.9585 36.7287 77.4529C36.7287 77.9585 36.8082 78.3989 36.9673 78.7739C37.1293 79.1489 37.3565 79.4401 37.6491 79.6475C37.9446 79.8548 38.2912 79.9585 38.6889 79.9585C38.9503 79.9585 39.1875 79.9131 39.4006 79.8222C39.6136 79.7313 39.794 79.6006 39.9418 79.4301C40.0895 79.2597 40.1946 79.0551 40.2571 78.8165H41.2628C41.206 79.2029 41.0653 79.5509 40.8409 79.8605C40.6193 80.1673 40.3253 80.4117 39.9588 80.5935C39.5952 80.7725 39.1719 80.8619 38.6889 80.8619ZM42.2173 75.1176V74.1801H47.5355V75.1176H45.3878V80.7256H44.3821V75.1176H42.2173ZM50.5888 80.879C50.174 80.879 49.7976 80.8009 49.4595 80.6446C49.1214 80.4855 48.853 80.2568 48.6541 79.9585C48.4553 79.6574 48.3558 79.2938 48.3558 78.8676C48.3558 78.4926 48.4297 78.1887 48.5774 77.9557C48.7251 77.7199 48.9226 77.5352 49.1697 77.4017C49.4169 77.2682 49.6896 77.1688 49.9879 77.1034C50.2891 77.0352 50.5916 76.9813 50.8956 76.9415C51.2933 76.8904 51.6158 76.852 51.8629 76.8264C52.1129 76.798 52.2947 76.7512 52.4084 76.6858C52.5249 76.6205 52.5831 76.5068 52.5831 76.3449V76.3108C52.5831 75.8904 52.468 75.5637 52.2379 75.3307C52.0107 75.0977 51.6655 74.9813 51.2024 74.9813C50.7223 74.9813 50.3459 75.0864 50.0732 75.2966C49.8004 75.5068 49.6087 75.7313 49.4979 75.9699L48.5433 75.629C48.7138 75.2313 48.9411 74.9216 49.2251 74.7C49.5121 74.4756 49.8246 74.3193 50.1626 74.2313C50.5036 74.1404 50.8388 74.0949 51.1683 74.0949C51.3786 74.0949 51.62 74.1205 51.8928 74.1716C52.1683 74.2199 52.4339 74.3208 52.6896 74.4742C52.9482 74.6276 53.1626 74.8591 53.3331 75.1688C53.5036 75.4784 53.5888 75.8932 53.5888 76.4131V80.7256H52.5831V79.8392H52.532C52.4638 79.9813 52.3501 80.1333 52.1911 80.2952C52.032 80.4571 51.8203 80.5949 51.5561 80.7085C51.2919 80.8222 50.9695 80.879 50.5888 80.879ZM50.7422 79.9756C51.1399 79.9756 51.4751 79.8975 51.7479 79.7412C52.0234 79.585 52.2308 79.3833 52.37 79.1361C52.5121 78.8889 52.5831 78.629 52.5831 78.3563V77.4358C52.5405 77.4869 52.4467 77.5338 52.3018 77.5764C52.1598 77.6162 51.995 77.6517 51.8075 77.683C51.6229 77.7114 51.4425 77.7369 51.2663 77.7597C51.093 77.7796 50.9524 77.7966 50.8445 77.8108C50.5831 77.8449 50.3388 77.9003 50.1115 77.977C49.8871 78.0509 49.7053 78.1631 49.5661 78.3137C49.4297 78.4614 49.3615 78.6631 49.3615 78.9188C49.3615 79.2682 49.4908 79.5324 49.7493 79.7114C50.0107 79.8875 50.3416 79.9756 50.7422 79.9756ZM54.7255 82.6006V79.7881H55.271C55.4045 79.6489 55.5195 79.4983 55.6161 79.3364C55.7127 79.1744 55.7965 78.9827 55.8675 78.7611C55.9414 78.5367 56.0039 78.2639 56.055 77.9429C56.1062 77.6191 56.1516 77.2284 56.1914 76.771L56.413 74.1801H60.5721V79.7881H61.5778V82.6006H60.5721V80.7256H55.7312V82.6006H54.7255ZM56.413 79.7881H59.5664V75.1176H57.3505L57.18 76.771C57.109 77.4557 57.021 78.0537 56.9158 78.5651C56.8107 79.0764 56.6431 79.4841 56.413 79.7881ZM63.9183 79.2426L67.0717 74.1801H68.2308V80.7256H67.2251V75.6631L64.0888 80.7256H62.9126V74.1801H63.9183V79.2426ZM74.0103 80.7256V75.1006H72.2717C71.8796 75.1006 71.5714 75.1915 71.3469 75.3733C71.1225 75.5551 71.0103 75.8051 71.0103 76.1233C71.0103 76.4358 71.1112 76.6816 71.3129 76.8605C71.5174 77.0395 71.7972 77.129 72.1523 77.129H74.266V78.0665H72.1523C71.7092 78.0665 71.3271 77.9884 71.006 77.8321C70.685 77.6759 70.4379 77.4529 70.2646 77.1631C70.0913 76.8705 70.0046 76.5239 70.0046 76.1233C70.0046 75.7199 70.0955 75.3733 70.2773 75.0835C70.4592 74.7938 70.7191 74.5708 71.0572 74.4145C71.3981 74.2583 71.8029 74.1801 72.2717 74.1801H74.9648V80.7256H74.0103ZM69.6467 80.7256L71.5046 77.4699H72.5955L70.7376 80.7256H69.6467Z" fill="#1B1B29"/>
<defs>
<linearGradient id="paint0_linear_0_338" x1="55.5" y1="159" x2="65.4149" y2="113.144" gradientUnits="userSpaceOnUse">
<stop stop-color="#0273FF"/>
<stop offset="1" stop-color="#013FFF"/>
</linearGradient>
<linearGradient id="paint1_linear_0_338" x1="55.5" y1="166.5" x2="166.5" y2="55.5" gradientUnits="userSpaceOnUse">
<stop stop-color="#0273FF"/>
<stop offset="1" stop-color="#013FFF"/>
</linearGradient>
<linearGradient id="paint2_linear_0_338" x1="55.7622" y1="86" x2="89.606" y2="24.6787" gradientUnits="userSpaceOnUse">
<stop stop-color="#0273FF"/>
<stop offset="1" stop-color="#013FFF"/>
</linearGradient>
</defs>
</svg>
