<svg width="111" height="147" viewBox="0 0 111 147" fill="none" xmlns="http://www.w3.org/2000/svg">
<path d="M42.3916 128.73C43.0649 128.73 43.7126 128.843 44.3348 129.069C44.9612 129.295 45.5195 129.655 46.0095 130.149C46.5038 130.643 46.8937 131.3 47.1793 132.118C47.469 132.932 47.616 133.931 47.6203 135.116C47.6203 136.228 47.4946 137.221 47.2432 138.094C46.996 138.964 46.6402 139.703 46.1757 140.312C45.7112 140.922 45.1508 141.386 44.4946 141.706C43.8383 142.021 43.1054 142.179 42.2957 142.179C41.4221 142.179 40.6508 142.011 39.9818 141.674C39.3128 141.333 38.7737 140.871 38.3646 140.287C37.9598 139.699 37.7148 139.038 37.6295 138.305H40.3589C40.4655 138.783 40.6892 139.153 41.0301 139.418C41.371 139.678 41.7929 139.808 42.2957 139.808C43.148 139.808 43.7957 139.437 44.2389 138.695C44.6821 137.95 44.9058 136.929 44.9101 135.634H44.8206C44.6246 136.017 44.3604 136.347 44.028 136.624C43.6956 136.897 43.3142 137.108 42.8838 137.257C42.4577 137.406 42.0038 137.481 41.5223 137.481C40.751 137.481 40.0628 137.3 39.4577 136.938C38.8525 136.575 38.3753 136.077 38.0258 135.442C37.6764 134.807 37.5017 134.082 37.5017 133.268C37.4974 132.391 37.6998 131.609 38.1089 130.923C38.518 130.237 39.0891 129.7 39.822 129.312C40.5592 128.92 41.4158 128.726 42.3916 128.73ZM42.4108 130.903C41.9804 130.903 41.5969 131.006 41.2602 131.21C40.9278 131.415 40.6636 131.69 40.4676 132.035C40.2758 132.38 40.1821 132.766 40.1864 133.192C40.1864 133.622 40.2801 134.01 40.4676 134.355C40.6594 134.696 40.9193 134.969 41.2474 135.173C41.5798 135.374 41.9591 135.474 42.3852 135.474C42.7048 135.474 43.001 135.414 43.2737 135.295C43.5464 135.175 43.7829 135.011 43.9832 134.803C44.1878 134.589 44.3476 134.344 44.4626 134.067C44.5777 133.79 44.6352 133.496 44.6352 133.185C44.631 132.772 44.5329 132.393 44.3412 132.048C44.1494 131.702 43.8852 131.425 43.5486 131.217C43.2119 131.008 42.8327 130.903 42.4108 130.903ZM53.7014 142.179C52.7171 142.179 51.8414 142.019 51.0743 141.7C50.3115 141.376 49.7128 140.935 49.2781 140.376C48.8435 139.818 48.6262 139.185 48.6262 138.478C48.6262 137.933 48.7497 137.432 48.9969 136.976C49.2483 136.516 49.5892 136.134 50.0196 135.832C50.45 135.525 50.9316 135.329 51.4642 135.244V135.154C50.7654 135.013 50.1986 134.675 49.7639 134.138C49.3293 133.597 49.1119 132.968 49.1119 132.252C49.1119 131.575 49.3101 130.972 49.7064 130.443C50.1027 129.911 50.646 129.493 51.3364 129.19C52.031 128.884 52.8193 128.73 53.7014 128.73C54.5835 128.73 55.3698 128.884 56.0601 129.19C56.7547 129.497 57.3002 129.917 57.6965 130.45C58.0928 130.978 58.2931 131.579 58.2973 132.252C58.2931 132.972 58.0715 133.601 57.6325 134.138C57.1936 134.675 56.6311 135.013 55.945 135.154V135.244C56.4692 135.329 56.9443 135.525 57.3705 135.832C57.8009 136.134 58.1418 136.516 58.3932 136.976C58.6489 137.432 58.7789 137.933 58.7831 138.478C58.7789 139.185 58.5594 139.818 58.1247 140.376C57.6901 140.935 57.0892 141.376 56.3222 141.7C55.5594 142.019 54.6858 142.179 53.7014 142.179ZM53.7014 140.146C54.1404 140.146 54.5239 140.067 54.852 139.91C55.1801 139.748 55.4358 139.526 55.6191 139.245C55.8066 138.96 55.9003 138.631 55.9003 138.261C55.9003 137.881 55.8044 137.547 55.6127 137.257C55.4209 136.963 55.161 136.733 54.8328 136.567C54.5047 136.396 54.1276 136.311 53.7014 136.311C53.2796 136.311 52.9024 136.396 52.57 136.567C52.2377 136.733 51.9756 136.963 51.7838 137.257C51.5963 137.547 51.5026 137.881 51.5026 138.261C51.5026 138.631 51.5942 138.96 51.7774 139.245C51.9607 139.526 52.2185 139.748 52.5509 139.91C52.8833 140.067 53.2668 140.146 53.7014 140.146ZM53.7014 134.298C54.0679 134.298 54.3939 134.223 54.6794 134.074C54.9649 133.925 55.1887 133.718 55.3506 133.454C55.5125 133.19 55.5935 132.885 55.5935 132.54C55.5935 132.199 55.5125 131.901 55.3506 131.645C55.1887 131.385 54.9671 131.183 54.6858 131.038C54.4046 130.888 54.0764 130.814 53.7014 130.814C53.3307 130.814 53.0026 130.888 52.7171 131.038C52.4316 131.183 52.2078 131.385 52.0459 131.645C51.8882 131.901 51.8094 132.199 51.8094 132.54C51.8094 132.885 51.8904 133.19 52.0523 133.454C52.2142 133.718 52.4379 133.925 52.7235 134.074C53.009 134.223 53.335 134.298 53.7014 134.298ZM67.1638 139.545V138.855C67.1638 138.331 67.2746 137.849 67.4962 137.411C67.722 136.967 68.048 136.614 68.4742 136.349C68.9046 136.081 69.4287 135.947 70.0466 135.947C70.673 135.947 71.1993 136.079 71.6254 136.343C72.0558 136.607 72.3797 136.961 72.597 137.404C72.8186 137.843 72.9294 138.327 72.9294 138.855V139.545C72.9294 140.07 72.8186 140.553 72.597 140.996C72.3754 141.435 72.0494 141.787 71.619 142.051C71.1886 142.32 70.6645 142.454 70.0466 142.454C69.4202 142.454 68.8939 142.32 68.4678 142.051C68.0416 141.787 67.7178 141.435 67.4962 140.996C67.2746 140.553 67.1638 140.07 67.1638 139.545ZM69.0239 138.855V139.545C69.0239 139.848 69.0963 140.134 69.2412 140.402C69.3904 140.67 69.6588 140.805 70.0466 140.805C70.4344 140.805 70.6986 140.673 70.8392 140.408C70.9841 140.144 71.0565 139.857 71.0565 139.545V138.855C71.0565 138.544 70.9884 138.254 70.852 137.986C70.7156 137.717 70.4472 137.583 70.0466 137.583C69.6631 137.583 69.3967 137.717 69.2476 137.986C69.0984 138.254 69.0239 138.544 69.0239 138.855ZM60.4457 132.054V131.364C60.4457 130.835 60.5587 130.352 60.7845 129.913C61.0104 129.469 61.3364 129.116 61.7625 128.852C62.1929 128.587 62.7128 128.455 63.3222 128.455C63.9529 128.455 64.4813 128.587 64.9074 128.852C65.3335 129.116 65.6574 129.469 65.879 129.913C66.1006 130.352 66.2114 130.835 66.2114 131.364V132.054C66.2114 132.582 66.0984 133.066 65.8726 133.505C65.651 133.944 65.325 134.295 64.8946 134.56C64.4685 134.82 63.9443 134.95 63.3222 134.95C62.7 134.95 62.1737 134.817 61.7433 134.553C61.3172 134.285 60.9933 133.933 60.7717 133.499C60.5544 133.06 60.4457 132.578 60.4457 132.054ZM62.3186 131.364V132.054C62.3186 132.365 62.3911 132.653 62.5359 132.917C62.6851 133.181 62.9472 133.313 63.3222 133.313C63.7142 133.313 63.9805 133.181 64.1212 132.917C64.2661 132.653 64.3385 132.365 64.3385 132.054V131.364C64.3385 131.053 64.2703 130.763 64.134 130.494C63.9976 130.226 63.727 130.092 63.3222 130.092C62.9429 130.092 62.6808 130.228 62.5359 130.501C62.3911 130.773 62.3186 131.061 62.3186 131.364ZM61.2895 142L70.2895 128.909H71.9642L62.9642 142H61.2895Z" fill="url(#paint0_linear_0_324)"/>
<circle cx="55.5" cy="55.5" r="55.5" fill="#F1F4F8"/>
<mask id="path-3-inside-1_0_324" fill="white">
<path d="M55.5 2.22C55.5 0.993927 56.4947 -0.00463224 57.7198 0.0443665C71.3333 0.588852 84.302 6.12662 94.1232 15.644C104.477 25.6774 110.52 39.3462 110.973 53.7567C111.425 68.1673 106.253 82.1885 96.5495 92.8522C86.8463 103.516 73.3741 109.985 58.9849 110.89C44.5956 111.796 30.4189 107.066 19.4556 97.7025C8.49235 88.339 1.60312 75.0767 0.246309 60.723C-1.11051 46.3693 3.17159 32.051 12.1861 20.799C20.737 10.1258 32.9094 3.00627 46.3473 0.75986C47.5566 0.557704 48.6686 1.42372 48.8223 2.64012C48.9759 3.85653 48.1131 4.96229 46.9045 5.16864C34.6109 7.26769 23.4809 13.8021 15.6512 23.5751C7.35786 33.9269 3.41833 47.0998 4.6666 60.3051C5.91487 73.5105 12.253 85.7119 22.3392 94.3263C32.4254 102.941 45.468 107.292 58.7061 106.459C71.9441 105.626 84.3386 99.6747 93.2656 89.864C102.193 80.0534 106.951 67.1539 106.535 53.8962C106.118 40.6385 100.559 28.0632 91.0333 18.8325C82.0405 10.1178 70.1793 5.02993 57.7196 4.48822C56.4947 4.43496 55.5 3.44607 55.5 2.22Z"/>
</mask>
<path d="M55.5 2.22C55.5 0.993927 56.4947 -0.00463224 57.7198 0.0443665C71.3333 0.588852 84.302 6.12662 94.1232 15.644C104.477 25.6774 110.52 39.3462 110.973 53.7567C111.425 68.1673 106.253 82.1885 96.5495 92.8522C86.8463 103.516 73.3741 109.985 58.9849 110.89C44.5956 111.796 30.4189 107.066 19.4556 97.7025C8.49235 88.339 1.60312 75.0767 0.246309 60.723C-1.11051 46.3693 3.17159 32.051 12.1861 20.799C20.737 10.1258 32.9094 3.00627 46.3473 0.75986C47.5566 0.557704 48.6686 1.42372 48.8223 2.64012C48.9759 3.85653 48.1131 4.96229 46.9045 5.16864C34.6109 7.26769 23.4809 13.8021 15.6512 23.5751C7.35786 33.9269 3.41833 47.0998 4.6666 60.3051C5.91487 73.5105 12.253 85.7119 22.3392 94.3263C32.4254 102.941 45.468 107.292 58.7061 106.459C71.9441 105.626 84.3386 99.6747 93.2656 89.864C102.193 80.0534 106.951 67.1539 106.535 53.8962C106.118 40.6385 100.559 28.0632 91.0333 18.8325C82.0405 10.1178 70.1793 5.02993 57.7196 4.48822C56.4947 4.43496 55.5 3.44607 55.5 2.22Z" stroke="url(#paint1_linear_0_324)" stroke-width="18.9817" mask="url(#path-3-inside-1_0_324)"/>
<path d="M58.5284 32.8182V59H52.9929V32.8182H58.5284Z" fill="url(#paint2_linear_0_324)"/>
<path d="M38.6889 80.8619C38.0753 80.8619 37.5469 80.7171 37.1037 80.4273C36.6605 80.1375 36.3196 79.7384 36.081 79.2298C35.8423 78.7213 35.723 78.1404 35.723 77.4869C35.723 76.8222 35.8452 76.2355 36.0895 75.727C36.3366 75.2156 36.6804 74.8165 37.1207 74.5296C37.5639 74.2398 38.081 74.0949 38.6719 74.0949C39.1321 74.0949 39.5469 74.1801 39.9162 74.3506C40.2855 74.521 40.5881 74.7597 40.8239 75.0665C41.0597 75.3733 41.206 75.7313 41.2628 76.1404H40.2571C40.1804 75.8421 40.0099 75.5779 39.7457 75.3477C39.4844 75.1148 39.1321 74.9983 38.6889 74.9983C38.2969 74.9983 37.9531 75.1006 37.6577 75.3051C37.3651 75.5068 37.1364 75.7923 36.9716 76.1617C36.8097 76.5281 36.7287 76.9585 36.7287 77.4529C36.7287 77.9585 36.8082 78.3989 36.9673 78.7739C37.1293 79.1489 37.3565 79.4401 37.6491 79.6475C37.9446 79.8548 38.2912 79.9585 38.6889 79.9585C38.9503 79.9585 39.1875 79.9131 39.4006 79.8222C39.6136 79.7313 39.794 79.6006 39.9418 79.4301C40.0895 79.2597 40.1946 79.0551 40.2571 78.8165H41.2628C41.206 79.2029 41.0653 79.5509 40.8409 79.8605C40.6193 80.1673 40.3253 80.4117 39.9588 80.5935C39.5952 80.7725 39.1719 80.8619 38.6889 80.8619ZM42.2173 75.1176V74.1801H47.5355V75.1176H45.3878V80.7256H44.3821V75.1176H42.2173ZM50.5888 80.879C50.174 80.879 49.7976 80.8009 49.4595 80.6446C49.1214 80.4855 48.853 80.2568 48.6541 79.9585C48.4553 79.6574 48.3558 79.2938 48.3558 78.8676C48.3558 78.4926 48.4297 78.1887 48.5774 77.9557C48.7251 77.7199 48.9226 77.5352 49.1697 77.4017C49.4169 77.2682 49.6896 77.1688 49.9879 77.1034C50.2891 77.0352 50.5916 76.9813 50.8956 76.9415C51.2933 76.8904 51.6158 76.852 51.8629 76.8264C52.1129 76.798 52.2947 76.7512 52.4084 76.6858C52.5249 76.6205 52.5831 76.5068 52.5831 76.3449V76.3108C52.5831 75.8904 52.468 75.5637 52.2379 75.3307C52.0107 75.0977 51.6655 74.9813 51.2024 74.9813C50.7223 74.9813 50.3459 75.0864 50.0732 75.2966C49.8004 75.5068 49.6087 75.7313 49.4979 75.9699L48.5433 75.629C48.7138 75.2313 48.9411 74.9216 49.2251 74.7C49.5121 74.4756 49.8246 74.3193 50.1626 74.2313C50.5036 74.1404 50.8388 74.0949 51.1683 74.0949C51.3786 74.0949 51.62 74.1205 51.8928 74.1716C52.1683 74.2199 52.4339 74.3208 52.6896 74.4742C52.9482 74.6276 53.1626 74.8591 53.3331 75.1688C53.5036 75.4784 53.5888 75.8932 53.5888 76.4131V80.7256H52.5831V79.8392H52.532C52.4638 79.9813 52.3501 80.1333 52.1911 80.2952C52.032 80.4571 51.8203 80.5949 51.5561 80.7085C51.2919 80.8222 50.9695 80.879 50.5888 80.879ZM50.7422 79.9756C51.1399 79.9756 51.4751 79.8975 51.7479 79.7412C52.0234 79.585 52.2308 79.3833 52.37 79.1361C52.5121 78.8889 52.5831 78.629 52.5831 78.3563V77.4358C52.5405 77.4869 52.4467 77.5338 52.3018 77.5764C52.1598 77.6162 51.995 77.6517 51.8075 77.683C51.6229 77.7114 51.4425 77.7369 51.2663 77.7597C51.093 77.7796 50.9524 77.7966 50.8445 77.8108C50.5831 77.8449 50.3388 77.9003 50.1115 77.977C49.8871 78.0509 49.7053 78.1631 49.5661 78.3137C49.4297 78.4614 49.3615 78.6631 49.3615 78.9188C49.3615 79.2682 49.4908 79.5324 49.7493 79.7114C50.0107 79.8875 50.3416 79.9756 50.7422 79.9756ZM54.7255 82.6006V79.7881H55.271C55.4045 79.6489 55.5195 79.4983 55.6161 79.3364C55.7127 79.1744 55.7965 78.9827 55.8675 78.7611C55.9414 78.5367 56.0039 78.2639 56.055 77.9429C56.1062 77.6191 56.1516 77.2284 56.1914 76.771L56.413 74.1801H60.5721V79.7881H61.5778V82.6006H60.5721V80.7256H55.7312V82.6006H54.7255ZM56.413 79.7881H59.5664V75.1176H57.3505L57.18 76.771C57.109 77.4557 57.021 78.0537 56.9158 78.5651C56.8107 79.0764 56.6431 79.4841 56.413 79.7881ZM63.9183 79.2426L67.0717 74.1801H68.2308V80.7256H67.2251V75.6631L64.0888 80.7256H62.9126V74.1801H63.9183V79.2426ZM74.0103 80.7256V75.1006H72.2717C71.8796 75.1006 71.5714 75.1915 71.3469 75.3733C71.1225 75.5551 71.0103 75.8051 71.0103 76.1233C71.0103 76.4358 71.1112 76.6816 71.3129 76.8605C71.5174 77.0395 71.7972 77.129 72.1523 77.129H74.266V78.0665H72.1523C71.7092 78.0665 71.3271 77.9884 71.006 77.8321C70.685 77.6759 70.4379 77.4529 70.2646 77.1631C70.0913 76.8705 70.0046 76.5239 70.0046 76.1233C70.0046 75.7199 70.0955 75.3733 70.2773 75.0835C70.4592 74.7938 70.7191 74.5708 71.0572 74.4145C71.3981 74.2583 71.8029 74.1801 72.2717 74.1801H74.9648V80.7256H74.0103ZM69.6467 80.7256L71.5046 77.4699H72.5955L70.7376 80.7256H69.6467Z" fill="#1B1B29"/>
<defs>
<linearGradient id="paint0_linear_0_324" x1="55.5" y1="159" x2="65.4149" y2="113.144" gradientUnits="userSpaceOnUse">
<stop stop-color="#0273FF"/>
<stop offset="1" stop-color="#013FFF"/>
</linearGradient>
<linearGradient id="paint1_linear_0_324" x1="55.5" y1="166.5" x2="166.5" y2="55.5" gradientUnits="userSpaceOnUse">
<stop stop-color="#0273FF"/>
<stop offset="1" stop-color="#013FFF"/>
</linearGradient>
<linearGradient id="paint2_linear_0_324" x1="55.7622" y1="86" x2="89.606" y2="24.6787" gradientUnits="userSpaceOnUse">
<stop stop-color="#0273FF"/>
<stop offset="1" stop-color="#013FFF"/>
</linearGradient>
</defs>
</svg>
