<svg width="111" height="147" viewBox="0 0 111 147" fill="none" xmlns="http://www.w3.org/2000/svg">
<path d="M42.4092 128.73C43.0825 128.73 43.7302 128.843 44.3524 129.069C44.9788 129.295 45.537 129.655 46.0271 130.149C46.5214 130.643 46.9113 131.3 47.1968 132.118C47.4866 132.932 47.6336 133.931 47.6379 135.116C47.6379 136.228 47.5122 137.221 47.2608 138.094C47.0136 138.964 46.6578 139.703 46.1933 140.312C45.7288 140.922 45.1684 141.386 44.5122 141.706C43.8559 142.021 43.123 142.179 42.3133 142.179C41.4397 142.179 40.6684 142.011 39.9994 141.674C39.3304 141.333 38.7913 140.871 38.3822 140.287C37.9774 139.699 37.7323 139.038 37.6471 138.305H40.3765C40.4831 138.783 40.7068 139.153 41.0477 139.418C41.3886 139.678 41.8105 139.808 42.3133 139.808C43.1656 139.808 43.8133 139.437 44.2565 138.695C44.6997 137.95 44.9234 136.929 44.9277 135.634H44.8382C44.6421 136.017 44.3779 136.347 44.0456 136.624C43.7132 136.897 43.3318 137.108 42.9014 137.257C42.4752 137.406 42.0214 137.481 41.5399 137.481C40.7686 137.481 40.0804 137.3 39.4752 136.938C38.8701 136.575 38.3929 136.077 38.0434 135.442C37.694 134.807 37.5193 134.082 37.5193 133.268C37.515 132.391 37.7174 131.609 38.1265 130.923C38.5356 130.237 39.1066 129.7 39.8396 129.312C40.5768 128.92 41.4333 128.726 42.4092 128.73ZM42.4284 130.903C41.998 130.903 41.6144 131.006 41.2778 131.21C40.9454 131.415 40.6812 131.69 40.4852 132.035C40.2934 132.38 40.1997 132.766 40.2039 133.192C40.2039 133.622 40.2977 134.01 40.4852 134.355C40.6769 134.696 40.9369 134.969 41.265 135.173C41.5974 135.374 41.9767 135.474 42.4028 135.474C42.7224 135.474 43.0186 135.414 43.2913 135.295C43.564 135.175 43.8005 135.011 44.0008 134.803C44.2054 134.589 44.3652 134.344 44.4802 134.067C44.5953 133.79 44.6528 133.496 44.6528 133.185C44.6485 132.772 44.5505 132.393 44.3588 132.048C44.167 131.702 43.9028 131.425 43.5661 131.217C43.2295 131.008 42.8502 130.903 42.4284 130.903ZM53.6743 142.179C52.7197 142.179 51.8696 142.015 51.1238 141.687C50.3824 141.354 49.7964 140.898 49.366 140.319C48.9399 139.735 48.7204 139.062 48.7077 138.299H51.4946C51.5116 138.619 51.616 138.9 51.8078 139.143C52.0038 139.381 52.2638 139.567 52.5876 139.699C52.9115 139.831 53.2758 139.897 53.6807 139.897C54.1025 139.897 54.4754 139.822 54.7993 139.673C55.1231 139.524 55.3767 139.317 55.5599 139.053C55.7432 138.789 55.8348 138.484 55.8348 138.139C55.8348 137.79 55.7368 137.481 55.5407 137.212C55.349 136.94 55.072 136.727 54.7098 136.573C54.3518 136.42 53.9257 136.343 53.4314 136.343H52.2105V134.31H53.4314C53.849 134.31 54.2176 134.238 54.5372 134.093C54.8611 133.948 55.1125 133.748 55.2915 133.492C55.4704 133.232 55.5599 132.93 55.5599 132.585C55.5599 132.256 55.4811 131.969 55.3234 131.722C55.17 131.47 54.9527 131.274 54.6714 131.134C54.3944 130.993 54.0706 130.923 53.6998 130.923C53.3248 130.923 52.9818 130.991 52.6707 131.127C52.3596 131.259 52.1104 131.449 51.9229 131.696C51.7354 131.943 51.6352 132.233 51.6224 132.565H48.9697C48.9825 131.811 49.1977 131.146 49.6153 130.571C50.0329 129.996 50.5954 129.546 51.3028 129.222C52.0145 128.894 52.8177 128.73 53.7126 128.73C54.616 128.73 55.4065 128.894 56.0841 129.222C56.7616 129.55 57.2879 129.994 57.6629 130.552C58.0422 131.106 58.2297 131.728 58.2254 132.418C58.2297 133.151 58.0017 133.763 57.5415 134.253C57.0855 134.743 56.491 135.054 55.7581 135.186V135.288C56.7211 135.412 57.4541 135.746 57.9569 136.292C58.464 136.833 58.7155 137.511 58.7112 138.325C58.7155 139.07 58.5003 139.733 58.0656 140.312C57.6352 140.892 57.0407 141.348 56.2822 141.68C55.5237 142.013 54.6544 142.179 53.6743 142.179ZM67.1462 139.545V138.855C67.1462 138.331 67.257 137.849 67.4786 137.411C67.7044 136.967 68.0304 136.614 68.4566 136.349C68.887 136.081 69.4111 135.947 70.029 135.947C70.6554 135.947 71.1817 136.079 71.6079 136.343C72.0383 136.607 72.3621 136.961 72.5794 137.404C72.801 137.843 72.9118 138.327 72.9118 138.855V139.545C72.9118 140.07 72.801 140.553 72.5794 140.996C72.3579 141.435 72.0319 141.787 71.6015 142.051C71.1711 142.32 70.6469 142.454 70.029 142.454C69.4026 142.454 68.8763 142.32 68.4502 142.051C68.0241 141.787 67.7002 141.435 67.4786 140.996C67.257 140.553 67.1462 140.07 67.1462 139.545ZM69.0063 138.855V139.545C69.0063 139.848 69.0787 140.134 69.2236 140.402C69.3728 140.67 69.6412 140.805 70.029 140.805C70.4168 140.805 70.681 140.673 70.8216 140.408C70.9665 140.144 71.039 139.857 71.039 139.545V138.855C71.039 138.544 70.9708 138.254 70.8344 137.986C70.6981 137.717 70.4296 137.583 70.029 137.583C69.6455 137.583 69.3792 137.717 69.23 137.986C69.0809 138.254 69.0063 138.544 69.0063 138.855ZM60.4282 132.054V131.364C60.4282 130.835 60.5411 130.352 60.7669 129.913C60.9928 129.469 61.3188 129.116 61.7449 128.852C62.1753 128.587 62.6952 128.455 63.3046 128.455C63.9353 128.455 64.4637 128.587 64.8898 128.852C65.316 129.116 65.6398 129.469 65.8614 129.913C66.083 130.352 66.1938 130.835 66.1938 131.364V132.054C66.1938 132.582 66.0809 133.066 65.855 133.505C65.6334 133.944 65.3074 134.295 64.877 134.56C64.4509 134.82 63.9267 134.95 63.3046 134.95C62.6824 134.95 62.1562 134.817 61.7258 134.553C61.2996 134.285 60.9758 133.933 60.7542 133.499C60.5368 133.06 60.4282 132.578 60.4282 132.054ZM62.301 131.364V132.054C62.301 132.365 62.3735 132.653 62.5184 132.917C62.6675 133.181 62.9296 133.313 63.3046 133.313C63.6966 133.313 63.963 133.181 64.1036 132.917C64.2485 132.653 64.3209 132.365 64.3209 132.054V131.364C64.3209 131.053 64.2527 130.763 64.1164 130.494C63.98 130.226 63.7094 130.092 63.3046 130.092C62.9253 130.092 62.6633 130.228 62.5184 130.501C62.3735 130.773 62.301 131.061 62.301 131.364ZM61.2719 142L70.2719 128.909H71.9466L62.9466 142H61.2719Z" fill="url(#paint0_linear_0_331)"/>
<circle cx="55.5" cy="55.5" r="55.5" fill="#F1F4F8"/>
<mask id="path-3-inside-1_0_331" fill="white">
<path d="M55.5 2.22C55.5 0.993927 56.4946 -0.00463369 57.7197 0.0443712C70.5869 0.559073 82.902 5.53601 92.5286 14.1584C102.708 23.2754 109.165 35.8273 110.665 49.4098C112.164 62.9922 108.6 76.6505 100.655 87.7684C92.7103 98.8864 80.9428 106.682 67.6069 109.663C54.271 112.644 40.3042 110.601 28.3815 103.924C16.4589 97.2465 7.41858 86.4057 2.99226 73.4774C-1.43407 60.5491 -0.935282 46.4423 4.39309 33.859C9.43234 21.9584 18.4563 12.2116 29.8797 6.26734C30.9674 5.70138 32.2925 6.18142 32.8145 7.2908C33.3365 8.40019 32.8577 9.71842 31.772 10.2882C21.3369 15.7643 13.0946 24.6964 8.48164 35.5903C3.57954 47.167 3.12065 60.1452 7.19287 72.0392C11.2651 83.9332 19.5821 93.9068 30.551 100.05C41.5198 106.192 54.3694 108.073 66.6384 105.33C78.9074 102.588 89.7334 95.4155 97.0428 85.187C104.352 74.9584 107.631 62.3929 106.252 49.897C104.872 37.4011 98.931 25.8534 89.5664 17.4657C80.7541 9.57275 69.4931 5.00017 57.7195 4.48822C56.4946 4.43496 55.5 3.44607 55.5 2.22Z"/>
</mask>
<path d="M55.5 2.22C55.5 0.993927 56.4946 -0.00463369 57.7197 0.0443712C70.5869 0.559073 82.902 5.53601 92.5286 14.1584C102.708 23.2754 109.165 35.8273 110.665 49.4098C112.164 62.9922 108.6 76.6505 100.655 87.7684C92.7103 98.8864 80.9428 106.682 67.6069 109.663C54.271 112.644 40.3042 110.601 28.3815 103.924C16.4589 97.2465 7.41858 86.4057 2.99226 73.4774C-1.43407 60.5491 -0.935282 46.4423 4.39309 33.859C9.43234 21.9584 18.4563 12.2116 29.8797 6.26734C30.9674 5.70138 32.2925 6.18142 32.8145 7.2908C33.3365 8.40019 32.8577 9.71842 31.772 10.2882C21.3369 15.7643 13.0946 24.6964 8.48164 35.5903C3.57954 47.167 3.12065 60.1452 7.19287 72.0392C11.2651 83.9332 19.5821 93.9068 30.551 100.05C41.5198 106.192 54.3694 108.073 66.6384 105.33C78.9074 102.588 89.7334 95.4155 97.0428 85.187C104.352 74.9584 107.631 62.3929 106.252 49.897C104.872 37.4011 98.931 25.8534 89.5664 17.4657C80.7541 9.57275 69.4931 5.00017 57.7195 4.48822C56.4946 4.43496 55.5 3.44607 55.5 2.22Z" stroke="url(#paint1_linear_0_331)" stroke-width="18.9817" mask="url(#path-3-inside-1_0_331)"/>
<path d="M53.6334 32.8182V59H48.0979V32.8182H53.6334ZM63.4233 32.8182V59H57.8878V32.8182H63.4233Z" fill="url(#paint2_linear_0_331)"/>
<path d="M38.6889 80.8619C38.0753 80.8619 37.5469 80.7171 37.1037 80.4273C36.6605 80.1375 36.3196 79.7384 36.081 79.2298C35.8423 78.7213 35.723 78.1404 35.723 77.4869C35.723 76.8222 35.8452 76.2355 36.0895 75.727C36.3366 75.2156 36.6804 74.8165 37.1207 74.5296C37.5639 74.2398 38.081 74.0949 38.6719 74.0949C39.1321 74.0949 39.5469 74.1801 39.9162 74.3506C40.2855 74.521 40.5881 74.7597 40.8239 75.0665C41.0597 75.3733 41.206 75.7313 41.2628 76.1404H40.2571C40.1804 75.8421 40.0099 75.5779 39.7457 75.3477C39.4844 75.1148 39.1321 74.9983 38.6889 74.9983C38.2969 74.9983 37.9531 75.1006 37.6577 75.3051C37.3651 75.5068 37.1364 75.7923 36.9716 76.1617C36.8097 76.5281 36.7287 76.9585 36.7287 77.4529C36.7287 77.9585 36.8082 78.3989 36.9673 78.7739C37.1293 79.1489 37.3565 79.4401 37.6491 79.6475C37.9446 79.8548 38.2912 79.9585 38.6889 79.9585C38.9503 79.9585 39.1875 79.9131 39.4006 79.8222C39.6136 79.7313 39.794 79.6006 39.9418 79.4301C40.0895 79.2597 40.1946 79.0551 40.2571 78.8165H41.2628C41.206 79.2029 41.0653 79.5509 40.8409 79.8605C40.6193 80.1673 40.3253 80.4117 39.9588 80.5935C39.5952 80.7725 39.1719 80.8619 38.6889 80.8619ZM42.2173 75.1176V74.1801H47.5355V75.1176H45.3878V80.7256H44.3821V75.1176H42.2173ZM50.5888 80.879C50.174 80.879 49.7976 80.8009 49.4595 80.6446C49.1214 80.4855 48.853 80.2568 48.6541 79.9585C48.4553 79.6574 48.3558 79.2938 48.3558 78.8676C48.3558 78.4926 48.4297 78.1887 48.5774 77.9557C48.7251 77.7199 48.9226 77.5352 49.1697 77.4017C49.4169 77.2682 49.6896 77.1688 49.9879 77.1034C50.2891 77.0352 50.5916 76.9813 50.8956 76.9415C51.2933 76.8904 51.6158 76.852 51.8629 76.8264C52.1129 76.798 52.2947 76.7512 52.4084 76.6858C52.5249 76.6205 52.5831 76.5068 52.5831 76.3449V76.3108C52.5831 75.8904 52.468 75.5637 52.2379 75.3307C52.0107 75.0977 51.6655 74.9813 51.2024 74.9813C50.7223 74.9813 50.3459 75.0864 50.0732 75.2966C49.8004 75.5068 49.6087 75.7313 49.4979 75.9699L48.5433 75.629C48.7138 75.2313 48.9411 74.9216 49.2251 74.7C49.5121 74.4756 49.8246 74.3193 50.1626 74.2313C50.5036 74.1404 50.8388 74.0949 51.1683 74.0949C51.3786 74.0949 51.62 74.1205 51.8928 74.1716C52.1683 74.2199 52.4339 74.3208 52.6896 74.4742C52.9482 74.6276 53.1626 74.8591 53.3331 75.1688C53.5036 75.4784 53.5888 75.8932 53.5888 76.4131V80.7256H52.5831V79.8392H52.532C52.4638 79.9813 52.3501 80.1333 52.1911 80.2952C52.032 80.4571 51.8203 80.5949 51.5561 80.7085C51.2919 80.8222 50.9695 80.879 50.5888 80.879ZM50.7422 79.9756C51.1399 79.9756 51.4751 79.8975 51.7479 79.7412C52.0234 79.585 52.2308 79.3833 52.37 79.1361C52.5121 78.8889 52.5831 78.629 52.5831 78.3563V77.4358C52.5405 77.4869 52.4467 77.5338 52.3018 77.5764C52.1598 77.6162 51.995 77.6517 51.8075 77.683C51.6229 77.7114 51.4425 77.7369 51.2663 77.7597C51.093 77.7796 50.9524 77.7966 50.8445 77.8108C50.5831 77.8449 50.3388 77.9003 50.1115 77.977C49.8871 78.0509 49.7053 78.1631 49.5661 78.3137C49.4297 78.4614 49.3615 78.6631 49.3615 78.9188C49.3615 79.2682 49.4908 79.5324 49.7493 79.7114C50.0107 79.8875 50.3416 79.9756 50.7422 79.9756ZM54.7255 82.6006V79.7881H55.271C55.4045 79.6489 55.5195 79.4983 55.6161 79.3364C55.7127 79.1744 55.7965 78.9827 55.8675 78.7611C55.9414 78.5367 56.0039 78.2639 56.055 77.9429C56.1062 77.6191 56.1516 77.2284 56.1914 76.771L56.413 74.1801H60.5721V79.7881H61.5778V82.6006H60.5721V80.7256H55.7312V82.6006H54.7255ZM56.413 79.7881H59.5664V75.1176H57.3505L57.18 76.771C57.109 77.4557 57.021 78.0537 56.9158 78.5651C56.8107 79.0764 56.6431 79.4841 56.413 79.7881ZM63.9183 79.2426L67.0717 74.1801H68.2308V80.7256H67.2251V75.6631L64.0888 80.7256H62.9126V74.1801H63.9183V79.2426ZM74.0103 80.7256V75.1006H72.2717C71.8796 75.1006 71.5714 75.1915 71.3469 75.3733C71.1225 75.5551 71.0103 75.8051 71.0103 76.1233C71.0103 76.4358 71.1112 76.6816 71.3129 76.8605C71.5174 77.0395 71.7972 77.129 72.1523 77.129H74.266V78.0665H72.1523C71.7092 78.0665 71.3271 77.9884 71.006 77.8321C70.685 77.6759 70.4379 77.4529 70.2646 77.1631C70.0913 76.8705 70.0046 76.5239 70.0046 76.1233C70.0046 75.7199 70.0955 75.3733 70.2773 75.0835C70.4592 74.7938 70.7191 74.5708 71.0572 74.4145C71.3981 74.2583 71.8029 74.1801 72.2717 74.1801H74.9648V80.7256H74.0103ZM69.6467 80.7256L71.5046 77.4699H72.5955L70.7376 80.7256H69.6467Z" fill="#1B1B29"/>
<defs>
<linearGradient id="paint0_linear_0_331" x1="55.5" y1="159" x2="65.4149" y2="113.144" gradientUnits="userSpaceOnUse">
<stop stop-color="#0273FF"/>
<stop offset="1" stop-color="#013FFF"/>
</linearGradient>
<linearGradient id="paint1_linear_0_331" x1="55.5" y1="166.5" x2="166.5" y2="55.5" gradientUnits="userSpaceOnUse">
<stop stop-color="#0273FF"/>
<stop offset="1" stop-color="#013FFF"/>
</linearGradient>
<linearGradient id="paint2_linear_0_331" x1="55.7622" y1="86" x2="89.606" y2="24.6787" gradientUnits="userSpaceOnUse">
<stop stop-color="#0273FF"/>
<stop offset="1" stop-color="#013FFF"/>
</linearGradient>
</defs>
</svg>
