<svg width="111" height="147" viewBox="0 0 111 147" fill="none" xmlns="http://www.w3.org/2000/svg">
<path d="M39.9318 142V140.006L44.5916 135.691C44.9879 135.308 45.3203 134.962 45.5888 134.656C45.8615 134.349 46.0682 134.048 46.2088 133.754C46.3494 133.456 46.4197 133.134 46.4197 132.789C46.4197 132.406 46.3324 132.075 46.1577 131.798C45.983 131.517 45.7443 131.302 45.4418 131.153C45.1392 130.999 44.7962 130.923 44.4126 130.923C44.0121 130.923 43.6626 131.004 43.3644 131.165C43.0661 131.327 42.8359 131.56 42.674 131.862C42.5121 132.165 42.4311 132.525 42.4311 132.942H39.804C39.804 132.086 39.9979 131.342 40.3857 130.712C40.7734 130.081 41.3168 129.593 42.0156 129.248C42.7145 128.903 43.5199 128.73 44.4318 128.73C45.3693 128.73 46.1854 128.896 46.88 129.229C47.5788 129.557 48.1222 130.013 48.5099 130.597C48.8977 131.18 49.0916 131.849 49.0916 132.604C49.0916 133.098 48.9936 133.586 48.7976 134.067C48.6058 134.549 48.2628 135.084 47.7685 135.672C47.2742 136.256 46.5774 136.957 45.6783 137.775L43.767 139.648V139.737H49.2642V142H39.9318ZM50.5497 142V140.006L55.2095 135.691C55.6058 135.308 55.9382 134.962 56.2067 134.656C56.4794 134.349 56.6861 134.048 56.8267 133.754C56.9673 133.456 57.0376 133.134 57.0376 132.789C57.0376 132.406 56.9503 132.075 56.7756 131.798C56.6008 131.517 56.3622 131.302 56.0597 131.153C55.7571 130.999 55.4141 130.923 55.0305 130.923C54.63 130.923 54.2805 131.004 53.9822 131.165C53.6839 131.327 53.4538 131.56 53.2919 131.862C53.13 132.165 53.049 132.525 53.049 132.942H50.4219C50.4219 132.086 50.6158 131.342 51.0035 130.712C51.3913 130.081 51.9347 129.593 52.6335 129.248C53.3324 128.903 54.1378 128.73 55.0497 128.73C55.9872 128.73 56.8033 128.896 57.4979 129.229C58.1967 129.557 58.7401 130.013 59.1278 130.597C59.5156 131.18 59.7095 131.849 59.7095 132.604C59.7095 133.098 59.6115 133.586 59.4155 134.067C59.2237 134.549 58.8807 135.084 58.3864 135.672C57.892 136.256 57.1953 136.957 56.2962 137.775L54.3849 139.648V139.737H59.8821V142H50.5497ZM68.3331 139.545V138.855C68.3331 138.331 68.4439 137.849 68.6655 137.411C68.8913 136.967 69.2173 136.614 69.6435 136.349C70.0739 136.081 70.598 135.947 71.2159 135.947C71.8423 135.947 72.3686 136.079 72.7947 136.343C73.2251 136.607 73.549 136.961 73.7663 137.404C73.9879 137.843 74.0987 138.327 74.0987 138.855V139.545C74.0987 140.07 73.9879 140.553 73.7663 140.996C73.5447 141.435 73.2187 141.787 72.7883 142.051C72.3579 142.32 71.8338 142.454 71.2159 142.454C70.5895 142.454 70.0632 142.32 69.6371 142.051C69.2109 141.787 68.8871 141.435 68.6655 140.996C68.4439 140.553 68.3331 140.07 68.3331 139.545ZM70.1932 138.855V139.545C70.1932 139.848 70.2656 140.134 70.4105 140.402C70.5597 140.67 70.8281 140.805 71.2159 140.805C71.6037 140.805 71.8679 140.673 72.0085 140.408C72.1534 140.144 72.2258 139.857 72.2258 139.545V138.855C72.2258 138.544 72.1577 138.254 72.0213 137.986C71.8849 137.717 71.6165 137.583 71.2159 137.583C70.8324 137.583 70.566 137.717 70.4169 137.986C70.2677 138.254 70.1932 138.544 70.1932 138.855ZM61.615 132.054V131.364C61.615 130.835 61.728 130.352 61.9538 129.913C62.1797 129.469 62.5057 129.116 62.9318 128.852C63.3622 128.587 63.8821 128.455 64.4915 128.455C65.1222 128.455 65.6506 128.587 66.0767 128.852C66.5028 129.116 66.8267 129.469 67.0483 129.913C67.2699 130.352 67.3807 130.835 67.3807 131.364V132.054C67.3807 132.582 67.2677 133.066 67.0419 133.505C66.8203 133.944 66.4943 134.295 66.0639 134.56C65.6378 134.82 65.1136 134.95 64.4915 134.95C63.8693 134.95 63.343 134.817 62.9126 134.553C62.4865 134.285 62.1626 133.933 61.941 133.499C61.7237 133.06 61.615 132.578 61.615 132.054ZM63.4879 131.364V132.054C63.4879 132.365 63.5604 132.653 63.7052 132.917C63.8544 133.181 64.1165 133.313 64.4915 133.313C64.8835 133.313 65.1498 133.181 65.2905 132.917C65.4354 132.653 65.5078 132.365 65.5078 132.054V131.364C65.5078 131.053 65.4396 130.763 65.3033 130.494C65.1669 130.226 64.8963 130.092 64.4915 130.092C64.1122 130.092 63.8501 130.228 63.7052 130.501C63.5604 130.773 63.4879 131.061 63.4879 131.364ZM62.4588 142L71.4588 128.909H73.1335L64.1335 142H62.4588Z" fill="url(#paint0_linear_0_345)"/>
<circle cx="55.5" cy="55.5" r="55.5" fill="#F1F4F8"/>
<mask id="path-3-inside-1_0_345" fill="white">
<path d="M55.5 2.22C55.5 0.993927 56.4945 -0.00463522 57.7196 0.0443745C69.8429 0.529365 81.497 4.97669 90.877 12.7365C100.257 20.4963 106.809 31.1107 109.557 42.9284C109.835 44.1226 109.041 45.2866 107.836 45.5163C106.632 45.7461 105.474 44.9546 105.192 43.7613C102.641 32.9584 96.6308 23.2588 88.0469 16.1576C79.463 9.05639 68.8091 4.97048 57.7194 4.48823C56.4944 4.43496 55.5 3.44607 55.5 2.22Z"/>
</mask>
<path d="M55.5 2.22C55.5 0.993927 56.4945 -0.00463522 57.7196 0.0443745C69.8429 0.529365 81.497 4.97669 90.877 12.7365C100.257 20.4963 106.809 31.1107 109.557 42.9284C109.835 44.1226 109.041 45.2866 107.836 45.5163C106.632 45.7461 105.474 44.9546 105.192 43.7613C102.641 32.9584 96.6308 23.2588 88.0469 16.1576C79.463 9.05639 68.8091 4.97048 57.7194 4.48823C56.4944 4.43496 55.5 3.44607 55.5 2.22Z" stroke="url(#paint1_linear_0_345)" stroke-width="18.9817" mask="url(#path-3-inside-1_0_345)"/>
<path d="M45.2135 32.8182V59H39.678V32.8182H45.2135ZM54.1979 32.8182L60.5261 52.7102H60.769L67.1099 32.8182H73.2462L64.2207 59H57.0872L48.0488 32.8182H54.1979Z" fill="url(#paint2_linear_0_345)"/>
<path d="M38.6889 80.8619C38.0753 80.8619 37.5469 80.7171 37.1037 80.4273C36.6605 80.1375 36.3196 79.7384 36.081 79.2298C35.8423 78.7213 35.723 78.1404 35.723 77.4869C35.723 76.8222 35.8452 76.2355 36.0895 75.727C36.3366 75.2156 36.6804 74.8165 37.1207 74.5296C37.5639 74.2398 38.081 74.0949 38.6719 74.0949C39.1321 74.0949 39.5469 74.1801 39.9162 74.3506C40.2855 74.521 40.5881 74.7597 40.8239 75.0665C41.0597 75.3733 41.206 75.7313 41.2628 76.1404H40.2571C40.1804 75.8421 40.0099 75.5779 39.7457 75.3477C39.4844 75.1148 39.1321 74.9983 38.6889 74.9983C38.2969 74.9983 37.9531 75.1006 37.6577 75.3051C37.3651 75.5068 37.1364 75.7923 36.9716 76.1617C36.8097 76.5281 36.7287 76.9585 36.7287 77.4529C36.7287 77.9585 36.8082 78.3989 36.9673 78.7739C37.1293 79.1489 37.3565 79.4401 37.6491 79.6475C37.9446 79.8548 38.2912 79.9585 38.6889 79.9585C38.9503 79.9585 39.1875 79.9131 39.4006 79.8222C39.6136 79.7313 39.794 79.6006 39.9418 79.4301C40.0895 79.2597 40.1946 79.0551 40.2571 78.8165H41.2628C41.206 79.2029 41.0653 79.5509 40.8409 79.8605C40.6193 80.1673 40.3253 80.4117 39.9588 80.5935C39.5952 80.7725 39.1719 80.8619 38.6889 80.8619ZM42.2173 75.1176V74.1801H47.5355V75.1176H45.3878V80.7256H44.3821V75.1176H42.2173ZM50.5888 80.879C50.174 80.879 49.7976 80.8009 49.4595 80.6446C49.1214 80.4855 48.853 80.2568 48.6541 79.9585C48.4553 79.6574 48.3558 79.2938 48.3558 78.8676C48.3558 78.4926 48.4297 78.1887 48.5774 77.9557C48.7251 77.7199 48.9226 77.5352 49.1697 77.4017C49.4169 77.2682 49.6896 77.1688 49.9879 77.1034C50.2891 77.0352 50.5916 76.9813 50.8956 76.9415C51.2933 76.8904 51.6158 76.852 51.8629 76.8264C52.1129 76.798 52.2947 76.7512 52.4084 76.6858C52.5249 76.6205 52.5831 76.5068 52.5831 76.3449V76.3108C52.5831 75.8904 52.468 75.5637 52.2379 75.3307C52.0107 75.0977 51.6655 74.9813 51.2024 74.9813C50.7223 74.9813 50.3459 75.0864 50.0732 75.2966C49.8004 75.5068 49.6087 75.7313 49.4979 75.9699L48.5433 75.629C48.7138 75.2313 48.9411 74.9216 49.2251 74.7C49.5121 74.4756 49.8246 74.3193 50.1626 74.2313C50.5036 74.1404 50.8388 74.0949 51.1683 74.0949C51.3786 74.0949 51.62 74.1205 51.8928 74.1716C52.1683 74.2199 52.4339 74.3208 52.6896 74.4742C52.9482 74.6276 53.1626 74.8591 53.3331 75.1688C53.5036 75.4784 53.5888 75.8932 53.5888 76.4131V80.7256H52.5831V79.8392H52.532C52.4638 79.9813 52.3501 80.1333 52.1911 80.2952C52.032 80.4571 51.8203 80.5949 51.5561 80.7085C51.2919 80.8222 50.9695 80.879 50.5888 80.879ZM50.7422 79.9756C51.1399 79.9756 51.4751 79.8975 51.7479 79.7412C52.0234 79.585 52.2308 79.3833 52.37 79.1361C52.5121 78.8889 52.5831 78.629 52.5831 78.3563V77.4358C52.5405 77.4869 52.4467 77.5338 52.3018 77.5764C52.1598 77.6162 51.995 77.6517 51.8075 77.683C51.6229 77.7114 51.4425 77.7369 51.2663 77.7597C51.093 77.7796 50.9524 77.7966 50.8445 77.8108C50.5831 77.8449 50.3388 77.9003 50.1115 77.977C49.8871 78.0509 49.7053 78.1631 49.5661 78.3137C49.4297 78.4614 49.3615 78.6631 49.3615 78.9188C49.3615 79.2682 49.4908 79.5324 49.7493 79.7114C50.0107 79.8875 50.3416 79.9756 50.7422 79.9756ZM54.7255 82.6006V79.7881H55.271C55.4045 79.6489 55.5195 79.4983 55.6161 79.3364C55.7127 79.1744 55.7965 78.9827 55.8675 78.7611C55.9414 78.5367 56.0039 78.2639 56.055 77.9429C56.1062 77.6191 56.1516 77.2284 56.1914 76.771L56.413 74.1801H60.5721V79.7881H61.5778V82.6006H60.5721V80.7256H55.7312V82.6006H54.7255ZM56.413 79.7881H59.5664V75.1176H57.3505L57.18 76.771C57.109 77.4557 57.021 78.0537 56.9158 78.5651C56.8107 79.0764 56.6431 79.4841 56.413 79.7881ZM63.9183 79.2426L67.0717 74.1801H68.2308V80.7256H67.2251V75.6631L64.0888 80.7256H62.9126V74.1801H63.9183V79.2426ZM74.0103 80.7256V75.1006H72.2717C71.8796 75.1006 71.5714 75.1915 71.3469 75.3733C71.1225 75.5551 71.0103 75.8051 71.0103 76.1233C71.0103 76.4358 71.1112 76.6816 71.3129 76.8605C71.5174 77.0395 71.7972 77.129 72.1523 77.129H74.266V78.0665H72.1523C71.7092 78.0665 71.3271 77.9884 71.006 77.8321C70.685 77.6759 70.4379 77.4529 70.2646 77.1631C70.0913 76.8705 70.0046 76.5239 70.0046 76.1233C70.0046 75.7199 70.0955 75.3733 70.2773 75.0835C70.4592 74.7938 70.7191 74.5708 71.0572 74.4145C71.3981 74.2583 71.8029 74.1801 72.2717 74.1801H74.9648V80.7256H74.0103ZM69.6467 80.7256L71.5046 77.4699H72.5955L70.7376 80.7256H69.6467Z" fill="#1B1B29"/>
<defs>
<linearGradient id="paint0_linear_0_345" x1="55.5" y1="159" x2="65.4149" y2="113.144" gradientUnits="userSpaceOnUse">
<stop stop-color="#0273FF"/>
<stop offset="1" stop-color="#013FFF"/>
</linearGradient>
<linearGradient id="paint1_linear_0_345" x1="55.5" y1="166.5" x2="166.5" y2="55.5" gradientUnits="userSpaceOnUse">
<stop stop-color="#0273FF"/>
<stop offset="1" stop-color="#013FFF"/>
</linearGradient>
<linearGradient id="paint2_linear_0_345" x1="55.7622" y1="86" x2="89.606" y2="24.6787" gradientUnits="userSpaceOnUse">
<stop stop-color="#0273FF"/>
<stop offset="1" stop-color="#013FFF"/>
</linearGradient>
</defs>
</svg>
