<svg width="174" height="26" viewBox="0 0 174 26" fill="none" xmlns="http://www.w3.org/2000/svg">
<path d="M7.68219 17.4482H4.7248V8.72097H7.74185C8.60832 8.72097 9.35264 8.89569 9.9748 9.24512C10.5998 9.59171 11.0799 10.0903 11.4151 10.7409C11.7504 11.3914 11.918 12.1698 11.918 13.0761C11.918 13.9852 11.7489 14.7664 11.4109 15.4198C11.0757 16.0732 10.5913 16.5747 9.95776 16.9241C9.32707 17.2735 8.56855 17.4482 7.68219 17.4482ZM6.30577 16.0803H7.60548C8.21344 16.0803 8.72054 15.9695 9.12679 15.748C9.53304 15.5235 9.83844 15.1897 10.043 14.7465C10.2475 14.3005 10.3498 13.7437 10.3498 13.0761C10.3498 12.4085 10.2475 11.8545 10.043 11.4142C9.83844 10.971 9.53588 10.64 9.13531 10.4213C8.73759 10.1997 8.24327 10.0889 7.65236 10.0889H6.30577V16.0803ZM13.3576 17.4482V8.72097H19.0338V10.0463H14.9386V12.4156H18.7397V13.7409H14.9386V16.123H19.0678V17.4482H13.3576ZM25.3271 11.1201C25.2873 10.748 25.1197 10.4582 24.8242 10.2508C24.5316 10.0434 24.1509 9.93972 23.6822 9.93972C23.3526 9.93972 23.07 9.98944 22.8342 10.0889C22.5984 10.1883 22.418 10.3232 22.293 10.4937C22.168 10.6642 22.1041 10.8588 22.1012 11.0775C22.1012 11.2593 22.1424 11.417 22.2248 11.5505C22.31 11.684 22.4251 11.7977 22.57 11.8914C22.7149 11.9823 22.8754 12.059 23.0515 12.1215C23.2276 12.184 23.4052 12.2366 23.5842 12.2792L24.4024 12.4838C24.7319 12.5605 25.0487 12.6642 25.3526 12.7948C25.6595 12.9255 25.9336 13.0903 26.1751 13.2892C26.4194 13.488 26.6126 13.7281 26.7546 14.0093C26.8967 14.2906 26.9677 14.6201 26.9677 14.998C26.9677 15.5093 26.837 15.9596 26.5757 16.3488C26.3143 16.7352 25.9364 17.0377 25.4421 17.2565C24.9507 17.4724 24.3555 17.5803 23.6566 17.5803C22.9776 17.5803 22.3882 17.4752 21.8882 17.265C21.391 17.0548 21.0018 16.748 20.7205 16.3445C20.4421 15.9411 20.2916 15.4497 20.2688 14.8701H21.8242C21.847 15.1741 21.9407 15.4269 22.1055 15.6286C22.2703 15.8303 22.4847 15.9809 22.7489 16.0803C23.016 16.1798 23.3143 16.2295 23.6438 16.2295C23.9876 16.2295 24.2887 16.1784 24.5472 16.0761C24.8086 15.971 25.0132 15.8261 25.1609 15.6414C25.3086 15.4539 25.3839 15.2352 25.3867 14.9852C25.3839 14.7579 25.3171 14.5704 25.1864 14.4227C25.0558 14.2721 24.8725 14.1471 24.6367 14.0477C24.4038 13.9454 24.1311 13.8545 23.8186 13.7749L22.8257 13.5193C22.1069 13.3346 21.5387 13.0548 21.1211 12.6798C20.7063 12.3019 20.4989 11.8005 20.4989 11.1755C20.4989 10.6613 20.6382 10.211 20.9166 9.82466C21.1978 9.4383 21.5799 9.13858 22.0629 8.92551C22.5458 8.70961 23.0927 8.60165 23.7035 8.60165C24.3228 8.60165 24.8654 8.70961 25.3313 8.92551C25.8001 9.13858 26.168 9.43546 26.435 9.81614C26.7021 10.194 26.8399 10.6286 26.8484 11.1201H25.3271ZM29.8956 8.72097V17.4482H28.3146V8.72097H29.8956ZM37.3917 11.5079C37.3207 11.2778 37.2227 11.0718 37.0977 10.89C36.9755 10.7053 36.8278 10.5477 36.6545 10.417C36.484 10.2863 36.288 10.1883 36.0664 10.123C35.8448 10.0548 35.6034 10.0207 35.342 10.0207C34.8732 10.0207 34.4556 10.1386 34.0891 10.3744C33.7227 10.6102 33.4343 10.9568 33.2241 11.4142C33.0167 11.8687 32.913 12.4227 32.913 13.0761C32.913 13.7352 33.0167 14.2934 33.2241 14.7508C33.4315 15.2082 33.7198 15.5562 34.0891 15.7948C34.4585 16.0306 34.8874 16.1485 35.3761 16.1485C35.8193 16.1485 36.2028 16.0633 36.5266 15.8928C36.8534 15.7224 37.1048 15.4809 37.2809 15.1684C37.457 14.8531 37.5451 14.4838 37.5451 14.0605L37.9031 14.1159H35.5338V12.8801H39.0749V13.9284C39.0749 14.6755 38.9159 15.3218 38.5977 15.8673C38.2795 16.4127 37.842 16.8332 37.2852 17.1286C36.7284 17.4213 36.0891 17.5676 35.3676 17.5676C34.5636 17.5676 33.8576 17.3872 33.2497 17.0264C32.6445 16.6627 32.1715 16.1471 31.8306 15.4795C31.4926 14.809 31.3235 14.0136 31.3235 13.0931C31.3235 12.3886 31.423 11.7593 31.6218 11.2053C31.8235 10.6514 32.1048 10.1812 32.4656 9.79483C32.8264 9.40563 33.2497 9.11017 33.7355 8.90847C34.2213 8.70392 34.7497 8.60165 35.3207 8.60165C35.8036 8.60165 36.2539 8.67267 36.6715 8.81472C37.0891 8.95392 37.4599 9.15279 37.7838 9.41131C38.1105 9.66983 38.3789 9.97665 38.5891 10.3318C38.7994 10.6869 38.9372 11.0789 39.0025 11.5079H37.3917ZM47.7131 8.72097V17.4482H46.3068L42.1946 11.5036H42.1222V17.4482H40.5412V8.72097H41.956L46.0639 14.6698H46.1406V8.72097H47.7131ZM49.3732 17.4482V8.72097H55.0494V10.0463H50.9542V12.4156H54.7553V13.7409H50.9542V16.123H55.0835V17.4482H49.3732ZM59.5572 17.4482H56.5998V8.72097H59.6168C60.4833 8.72097 61.2276 8.89569 61.8498 9.24512C62.4748 9.59171 62.9549 10.0903 63.2901 10.7409C63.6254 11.3914 63.793 12.1698 63.793 13.0761C63.793 13.9852 63.6239 14.7664 63.2859 15.4198C62.9507 16.0732 62.4663 16.5747 61.8328 16.9241C61.2021 17.2735 60.4436 17.4482 59.5572 17.4482ZM58.1808 16.0803H59.4805C60.0884 16.0803 60.5955 15.9695 61.0018 15.748C61.408 15.5235 61.7134 15.1897 61.918 14.7465C62.1225 14.3005 62.2248 13.7437 62.2248 13.0761C62.2248 12.4085 62.1225 11.8545 61.918 11.4142C61.7134 10.971 61.4109 10.64 61.0103 10.4213C60.6126 10.1997 60.1183 10.0889 59.5274 10.0889H58.1808V16.0803ZM68.1467 17.4482V8.72097H71.4876C72.1183 8.72097 72.6424 8.8204 73.06 9.01926C73.4805 9.21529 73.7944 9.48375 74.0018 9.82466C74.212 10.1656 74.3171 10.5519 74.3171 10.9838C74.3171 11.3389 74.2489 11.6428 74.1126 11.8957C73.9762 12.1457 73.793 12.3488 73.5629 12.5051C73.3328 12.6613 73.0757 12.7735 72.7916 12.8417V12.9269C73.1012 12.944 73.3981 13.0392 73.6822 13.2124C73.9691 13.3829 74.2035 13.6244 74.3853 13.9369C74.5671 14.2494 74.658 14.6272 74.658 15.0704C74.658 15.5221 74.5487 15.9284 74.3299 16.2892C74.1112 16.6471 73.7816 16.9298 73.3413 17.1372C72.9009 17.3445 72.347 17.4482 71.6793 17.4482H68.1467ZM69.7276 16.1272H71.4279C72.0018 16.1272 72.4151 16.0178 72.668 15.7991C72.9237 15.5775 73.0515 15.2934 73.0515 14.9468C73.0515 14.6883 72.9876 14.4553 72.8597 14.248C72.7319 14.0377 72.5501 13.873 72.3143 13.7536C72.0785 13.6315 71.7972 13.5704 71.4705 13.5704H69.7276V16.1272ZM69.7276 12.4326H71.2916C71.5643 12.4326 71.81 12.3829 72.0288 12.2835C72.2475 12.1812 72.4194 12.0377 72.5444 11.8531C72.6722 11.6656 72.7362 11.444 72.7362 11.1883C72.7362 10.8502 72.6168 10.5718 72.3782 10.3531C72.1424 10.1343 71.7916 10.0249 71.3257 10.0249H69.7276V12.4326ZM75.3743 8.72097H77.1598L79.2948 12.5818H79.38L81.5149 8.72097H83.3004L80.1257 14.1926V17.4482H78.549V14.1926L75.3743 8.72097Z" fill="white"/>
<g clip-path="url(#clip0_0_1099)">
<path d="M113.716 6.40978C113.299 5.61096 112.745 4.93049 112.051 4.42753C111.357 3.89499 110.553 3.53996 109.665 3.30327C108.777 3.06659 107.834 2.94824 106.863 2.94824C106.031 2.94824 105.198 3.06659 104.338 3.30327C103.478 3.53996 102.757 3.92457 102.091 4.42753C101.425 4.93049 100.898 5.55179 100.482 6.32102C100.066 7.09025 99.8718 7.94824 99.8718 8.98375C99.8718 9.90091 100.038 10.6701 100.343 11.321C100.649 11.9719 101.093 12.5045 101.62 12.9187C102.147 13.3329 102.729 13.6879 103.395 13.9542C103.562 14.0133 103.7 14.0725 103.867 14.1317V8.62872C103.867 8.18493 103.895 7.77073 104.144 7.44528C104.366 7.17901 104.505 7.03108 104.782 6.85357C105.06 6.67605 105.365 6.52812 105.698 6.46895C106.031 6.40978 106.364 6.35061 106.697 6.35061C107.196 6.35061 107.668 6.40978 108.084 6.49854C108.5 6.5873 108.888 6.73522 109.221 6.97191C109.554 7.2086 109.832 7.50446 110.026 7.88907C110.081 7.97783 110.109 8.06659 110.164 8.18493H114.27C114.159 7.50446 113.993 6.94233 113.716 6.40978Z" fill="white"/>
<path d="M161.185 7.71322L159.687 2.97949H153.917V7.71322H161.185Z" fill="white"/>
<path d="M157.75 18.6592H153.894V22.9195H157.75V18.6592Z" fill="white"/>
<path d="M160.959 18.6592L162.346 22.9195H165.509L166.896 18.6592H160.959Z" fill="white"/>
<path d="M168.226 2.97949L166.811 7.71322H170.168V8.77831V18.66V22.9203H174.025V2.97949H168.226Z" fill="white"/>
<path d="M147.539 7.71322L145.874 2.97949H141.657L139.993 7.71322H147.539Z" fill="white"/>
<path d="M136.13 18.6592L134.632 22.9195H138.766L140.18 18.6592H136.13Z" fill="white"/>
<path d="M147.227 18.6592L148.587 22.9195H152.859L151.361 18.6592H147.227Z" fill="white"/>
<path d="M130.389 7.71156L133.552 2.94824H128.392L125.423 7.71156H130.389Z" fill="white"/>
<path d="M125.731 18.6592L128.394 22.9195H133.554L130.724 18.6592H125.731Z" fill="white"/>
<path d="M120.429 7.71156V5.37428V2.94824H116.323V7.71156H120.429Z" fill="white"/>
<path d="M120.429 18.6592H116.323V22.9195H120.429V18.6592Z" fill="white"/>
<path d="M110.748 18.2744C110.748 18.304 110.721 18.304 110.721 18.3336C110.471 18.659 110.166 18.9253 109.805 19.1028C109.444 19.2803 109.056 19.4282 108.64 19.4874C108.224 19.5466 107.835 19.5762 107.475 19.5762C106.948 19.5762 106.42 19.517 105.893 19.3691C105.394 19.2211 104.867 19.0436 104.478 18.7478C104.09 18.4519 103.785 18.0673 103.591 17.5643C103.369 17.0614 103.285 16.5584 103.285 15.8779H99.2905C99.2627 17.0909 99.4847 18.156 99.9286 19.0436C100.372 19.9312 100.983 20.6708 101.732 21.2625C102.481 21.8247 103.341 22.2685 104.284 22.5347C105.255 22.801 106.254 22.9489 107.28 22.9489C108.557 22.9489 109.666 22.801 110.637 22.4756C111.608 22.1501 112.413 21.7063 113.079 21.1442C113.745 20.5821 114.216 19.9016 114.549 19.1324C114.66 18.8661 114.771 18.5702 114.827 18.2744H110.748Z" fill="white"/>
</g>
<defs>
<clipPath id="clip0_0_1099">
<rect width="74.7119" height="20" fill="white" transform="translate(99.2881 2.94824)"/>
</clipPath>
</defs>
</svg>
