<svg width="118" height="46" viewBox="0 0 118 46" fill="none" xmlns="http://www.w3.org/2000/svg">
<rect x="7" y="0.948242" width="111" height="45" rx="22.5" fill="url(#paint0_linear_0_1062)"/>
<path d="M56.1875 31.2708V29.0213C57.2142 28.1663 58.2088 27.3201 59.1712 26.481C60.1498 25.6419 61.016 24.8115 61.77 23.9897C62.5398 23.1664 63.1495 22.3676 63.5986 21.5947C64.0638 20.8032 64.2964 20.0375 64.2964 19.2963C64.2964 18.6026 64.1039 17.9894 63.7189 17.4569C63.3499 16.9244 62.7324 16.6596 61.8662 16.6596C60.9839 16.6596 60.3181 16.9489 59.8691 17.5303C59.4198 18.1104 59.1952 18.8127 59.1952 19.6345H56.2117C56.2438 18.3924 56.5165 17.3605 57.0297 16.5387C57.543 15.6996 58.2248 15.0779 59.075 14.6749C59.9252 14.256 60.8796 14.0459 61.9383 14.0459C63.6547 14.0459 64.9861 14.5223 65.9326 15.4736C66.895 16.4092 67.3763 17.6267 67.3763 19.1264C67.3763 20.0619 67.1597 20.973 66.7266 21.8596C66.3096 22.7476 65.7561 23.6025 65.0663 24.4243C64.3766 25.2476 63.6306 26.0219 62.8286 26.7472C62.0265 27.4568 61.2486 28.1174 60.4946 28.7305H67.7853V31.2708H56.1875ZM76.5078 31.2708V28.1261H68.2064V25.6578L76.0986 14.3366H79.5877V25.4404H81.8013V28.1261H79.5877V31.2708H76.5078ZM71.5029 25.4404H76.7002V17.7477L71.5029 25.4404Z" fill="white"/>
<path d="M86.4823 14.0443V15.6965C86.4823 16.0894 86.663 16.2852 87.0243 16.2852C87.2599 16.2852 87.4779 16.2578 87.6788 16.2046C87.8822 16.1513 88.0869 16.0808 88.293 15.9944V14.0443H89.5176V18.5577H88.293V16.7659C88.0093 16.9156 87.7456 17.0221 87.5021 17.084C87.2585 17.1459 87.023 17.1775 86.7954 17.1775C86.3057 17.1775 85.9269 17.0523 85.6592 16.8019C85.3915 16.5485 85.2578 16.1902 85.2578 15.7239V14.0443H86.4823ZM93.2007 18.5577L92.9638 17.9446H92.9317C92.7256 18.2051 92.5128 18.3865 92.2934 18.4887C92.0765 18.5894 91.7928 18.6384 91.4422 18.6384C91.0112 18.6384 90.6714 18.5146 90.4224 18.267C90.1762 18.0195 90.0529 17.6669 90.0529 17.2092C90.0529 16.7299 90.219 16.3787 90.5508 16.1513C90.8855 15.9239 91.3887 15.7973 92.0605 15.7728L92.8394 15.7483V15.5512C92.8394 15.0935 92.6065 14.8646 92.1408 14.8646C91.7821 14.8646 91.3605 14.9726 90.8761 15.1914L90.4705 14.3595C90.9871 14.0874 91.5599 13.9521 92.1889 13.9521C92.7911 13.9521 93.2529 14.0846 93.5742 14.3479C93.8952 14.6113 94.0559 15.0129 94.0559 15.5512V18.5577H93.2007ZM92.8394 16.4665L92.3655 16.4824C92.0097 16.4939 91.7447 16.5586 91.5706 16.6767C91.3967 16.7947 91.3097 16.976 91.3097 17.2178C91.3097 17.5647 91.5078 17.7388 91.9039 17.7388C92.1876 17.7388 92.4138 17.6568 92.5824 17.4927C92.7538 17.3286 92.8394 17.1099 92.8394 16.8378V16.4665ZM96.6911 18.6384C95.294 18.6384 94.5954 17.8669 94.5954 16.3255C94.5954 15.5584 94.7854 14.9726 95.1654 14.5696C95.5455 14.1637 96.0902 13.9593 96.7995 13.9593C97.3188 13.9593 97.7845 14.063 98.1968 14.2673L97.8353 15.2201C97.6426 15.141 97.4633 15.0776 97.2974 15.0301C97.1315 14.9783 96.9655 14.9524 96.7995 14.9524C96.1625 14.9524 95.844 15.4072 95.844 16.3168C95.844 17.2005 96.1625 17.6409 96.7995 17.6409C97.0351 17.6409 97.2533 17.6107 97.454 17.5488C97.6547 17.4841 97.8555 17.3848 98.0562 17.2495V18.303C97.8581 18.4297 97.6574 18.5175 97.454 18.5664C97.2533 18.6139 96.9989 18.6384 96.6911 18.6384ZM101.498 18.5577L101.262 17.9446H101.229C101.023 18.2051 100.811 18.3865 100.591 18.4887C100.374 18.5894 100.091 18.6384 99.74 18.6384C99.3089 18.6384 98.9691 18.5146 98.7201 18.267C98.4739 18.0195 98.3507 17.6669 98.3507 17.2092C98.3507 16.7299 98.5167 16.3787 98.8486 16.1513C99.1831 15.9239 99.6864 15.7973 100.358 15.7728L101.137 15.7483V15.5512C101.137 15.0935 100.904 14.8646 100.439 14.8646C100.08 14.8646 99.6582 14.9726 99.1738 15.1914L98.7683 14.3595C99.2849 14.0874 99.8576 13.9521 100.487 13.9521C101.089 13.9521 101.551 14.0846 101.872 14.3479C102.193 14.6113 102.354 15.0129 102.354 15.5512V18.5577H101.498ZM101.137 16.4665L100.663 16.4824C100.307 16.4939 100.042 16.5586 99.8684 16.6767C99.6944 16.7947 99.6074 16.976 99.6074 17.2178C99.6074 17.5647 99.8055 17.7388 100.202 17.7388C100.485 17.7388 100.712 17.6568 100.88 17.4927C101.051 17.3286 101.137 17.1099 101.137 16.8378V16.4665Z" fill="white"/>
<path d="M41.1851 21.4205H38.9799C38.7922 21.4205 38.6392 21.2665 38.6392 21.078V18.8615C38.6392 18.4744 38.3268 18.1592 37.9403 18.1592H35.3029C34.918 18.1592 34.6042 18.4729 34.6042 18.8615V21.078C34.6042 21.2665 34.4511 21.4205 34.2633 21.4205H32.0582C31.6733 21.4205 31.3594 21.7343 31.3594 22.1229V24.774C31.3594 25.1611 31.6717 25.4763 32.0582 25.4763H34.2633C34.4511 25.4763 34.6042 25.6303 34.6042 25.8188V28.0353C34.6042 28.4224 34.9164 28.7376 35.3029 28.7376H37.9387C38.3237 28.7376 38.6376 28.4239 38.6376 28.0353V25.8188C38.6376 25.6303 38.7906 25.4763 38.9783 25.4763H41.1835C41.5683 25.4763 41.8823 25.1625 41.8823 24.774V22.1229C41.8838 21.7343 41.5699 21.4205 41.1851 21.4205Z" fill="white"/>
<path d="M45.6618 23.4493C45.6618 19.939 44.6159 16.7827 42.9518 14.6052C42.5196 14.041 43.1143 13.2667 43.7689 13.5401C43.7957 13.5502 43.8225 13.5617 43.8494 13.5732C45.1191 14.1129 46.258 14.8858 47.2376 15.8688C48.2156 16.8533 48.9838 17.9989 49.5217 19.2755C50.0786 20.5982 50.3609 22.0029 50.3609 23.4493C50.3609 24.8943 50.0786 26.299 49.5217 27.6217C48.9853 28.8983 48.2156 30.0425 47.2376 31.0284C46.2596 32.0114 45.1191 32.7828 43.8494 33.324C43.8225 33.3355 43.7957 33.347 43.7689 33.3571C43.1143 33.6306 42.5196 32.8577 42.9518 32.2921C44.6159 30.1131 45.6618 26.9582 45.6618 23.4493Z" fill="white"/>
<path d="M35.4096 10.1545V12.2501C35.4096 12.6372 35.722 12.9524 36.1085 12.9524H37.0328C37.4177 12.9524 37.7317 12.6386 37.7317 12.2501V10.1545C37.7317 9.76735 37.4193 9.45215 37.0328 9.45215H36.1085C35.722 9.45215 35.4096 9.76592 35.4096 10.1545ZM27.0542 13.2244L26.4011 13.8822C26.1281 14.1556 26.1281 14.6003 26.4011 14.8738L27.8745 16.3562C28.1473 16.6297 28.5889 16.6297 28.8619 16.3562L29.515 15.6985C29.7878 15.425 29.7878 14.9803 29.515 14.7068L28.0417 13.2244C27.7687 12.951 27.3255 12.951 27.0542 13.2244ZM22.6484 22.9854V23.9137C22.6484 24.3009 22.9608 24.6175 23.3473 24.6175H25.431C25.8159 24.6175 26.1297 24.3023 26.1297 23.9137V22.9854C26.1297 22.5982 25.8175 22.283 25.431 22.283H23.3473C22.9608 22.283 22.6484 22.5968 22.6484 22.9854ZM27.8745 30.5414L26.4011 32.0239C26.1281 32.2973 26.1281 32.742 26.4011 33.0155L27.0542 33.6732C27.327 33.9467 27.7687 33.9467 28.0417 33.6732L29.515 32.1908C29.7878 31.9174 29.7878 31.4726 29.515 31.1992L28.8619 30.5414C28.5889 30.2694 28.1457 30.2694 27.8745 30.5414ZM35.4096 34.6476V36.7431C35.4096 37.1303 35.722 37.4455 36.1085 37.4455H37.0328C37.4177 37.4455 37.7317 37.1317 37.7317 36.7431V34.6476C37.7317 34.2604 37.4193 33.9453 37.0328 33.9453H36.1085C35.722 33.9467 35.4096 34.2604 35.4096 34.6476Z" fill="white"/>
<defs>
<linearGradient id="paint0_linear_0_1062" x1="62.5" y1="68.4482" x2="93.8363" y2="-8.84787" gradientUnits="userSpaceOnUse">
<stop stop-color="#0273FF"/>
<stop offset="1" stop-color="#013FFF"/>
</linearGradient>
</defs>
</svg>
