<svg width="18" height="18" viewBox="0 0 18 18" fill="none" xmlns="http://www.w3.org/2000/svg">
<path fill-rule="evenodd" clip-rule="evenodd" d="M9.2 0.160156C5.26525 0.259071 2.09891 3.42541 2 7.36016C2.06676 8.52352 2.38761 9.65812 2.94 10.6842L2.996 10.7842C7.348 17.7602 8.648 17.7602 9.2 17.7602C10.064 17.7602 10.996 17.1522 13.2 14.0522C14.356 12.4522 15.348 10.8522 15.388 10.7802L15.444 10.6842C16.002 9.65942 16.3283 8.52474 16.4 7.36016C16.3011 3.42541 13.1348 0.259071 9.2 0.160156ZM14.4031 10.1594C14.4031 10.1594 10.4031 16.5594 9.20312 16.5594C8.00313 16.5594 4.00312 10.1594 4.00312 10.1594C3.5381 9.29447 3.26522 8.3394 3.20312 7.35938C3.20312 4.04567 5.88942 1.35938 9.20312 1.35938C12.5168 1.35938 15.2031 4.04567 15.2031 7.35938C15.1373 8.3403 14.8603 9.29543 14.3911 10.1594H14.4031Z" fill="white"/>
<path fill-rule="evenodd" clip-rule="evenodd" d="M9.2 3.75977C7.43269 3.75977 6 5.19245 6 6.95977C6 8.72708 7.43269 10.1598 9.2 10.1598C10.9673 10.1598 12.4 8.72708 12.4 6.95977C12.4 5.19245 10.9673 3.75977 9.2 3.75977ZM9.20312 8.95898C8.09856 8.95898 7.20312 8.06355 7.20312 6.95898C7.20312 5.85441 8.09856 4.95898 9.20312 4.95898C10.3077 4.95898 11.2031 5.85441 11.2031 6.95898C11.2031 8.06355 10.3077 8.95898 9.20312 8.95898Z" fill="white"/>
</svg>
