<svg width="19" height="18" viewBox="0 0 19 18" fill="none" xmlns="http://www.w3.org/2000/svg">
<path d="M6.3245 1C6.40616 1 6.40616 1 6.48469 1.0829C6.56635 1.1658 6.70635 1.4742 6.70635 1.64C6.70635 1.80261 6.80821 2.14468 6.88673 2.46991C7.04692 2.87804 7.21025 3.93982 7.44896 4.51056C7.69081 5.08131 7.77248 5.40972 7.53062 5.73495C7.28877 6.14309 5.76227 7.6959 5.76227 7.6959C5.76227 7.6959 6.16431 8.51216 6.64488 9C7.04692 9.57075 7.69081 10.387 8.4949 11.0407C9.29898 11.7772 10.1847 12.4277 11.0673 12.8358C11.9531 11.9398 12.6755 11.2033 12.9174 11.0407C13.1592 10.878 13.1592 10.7951 13.5612 10.9609C13.9633 11.1236 14.5255 11.3691 15.1694 11.4488C15.7316 11.5317 16.3755 11.6114 16.7776 11.6943C17.1796 11.7772 17.1796 11.7772 17.2613 11.9398C17.4215 12.1024 17.5 12.3479 17.5 12.4277C17.5 12.5106 17.5 12.7561 17.5 13.5723C17.5 14.3886 17.5 15.5301 17.5 15.7756C17.5 16.0211 17.5 16.0211 17.4215 16.1837C17.3398 16.3464 17.2613 16.7545 17.2613 16.7545C17.2613 16.8374 16.8592 17 16.6174 17C16.3755 17 15.4898 17 14.9276 16.9171C14.3653 16.8374 12.8388 16.509 12.2735 16.2666C11.7112 16.1008 9.86121 15.4504 7.61229 13.735C5.52042 12.1024 3.99391 9.89916 3.10817 8.10403C2.22242 6.3057 1.74185 4.34795 1.66019 3.36907C1.5 2.3902 1.5 1.98206 1.5 1.73655C1.58167 1.49103 1.82038 1.24552 1.98371 1.1658C2.14389 1.0829 2.38575 1 2.62446 1C2.86631 1 3.51021 1 4.39596 1C5.27856 1 6.3245 1 6.3245 1Z" fill="white"/>
</svg>
