<svg width="24" height="17" viewBox="0 0 24 17" fill="none" xmlns="http://www.w3.org/2000/svg">
<path d="M18.7111 16.0227C17.0264 16.0227 15.6822 15.4313 14.6785 14.2484C13.7107 13.0655 13.2268 11.5958 13.2268 9.83944C13.2268 7.83212 13.8362 5.98611 15.0549 4.30139C16.2736 2.61668 17.7791 1.18288 19.5714 0L20.4854 1.12911C18.729 2.38369 17.3669 3.78164 16.3991 5.32298C15.4313 6.82846 14.9474 8.15473 14.9474 9.30177C14.9474 10.0187 15.0907 10.5922 15.3775 11.0223C15.7001 11.4525 15.9689 11.6675 16.184 11.6675C16.3991 11.6675 16.5783 11.5242 16.7217 11.2374C16.8651 10.9506 17.0443 10.6101 17.2594 10.2158C17.4744 9.82152 17.797 9.48099 18.2272 9.19423C18.6573 8.90747 19.2487 8.76409 20.0015 8.76409C21.1485 8.76409 21.973 9.10462 22.4748 9.78568C22.9766 10.4309 23.2275 11.1657 23.2275 11.9901C23.2275 13.1013 22.8153 14.0512 21.9909 14.8398C21.2023 15.6284 20.109 16.0227 18.7111 16.0227ZM5.48428 16.0227C3.79957 16.0227 2.45538 15.4313 1.45172 14.2484C0.483907 13.0655 0 11.5958 0 9.83944C0 7.83212 0.609364 5.98611 1.82809 4.30139C3.04682 2.61668 4.55231 1.18288 6.34456 0L7.25861 1.12911C5.5022 2.38369 4.14009 3.78164 3.17228 5.32298C2.20447 6.82846 1.72056 8.15473 1.72056 9.30177C1.72056 10.0187 1.86394 10.5922 2.1507 11.0223C2.4733 11.4525 2.74214 11.6675 2.95721 11.6675C3.17228 11.6675 3.3515 11.5242 3.49488 11.2374C3.63826 10.9506 3.81749 10.6101 4.03256 10.2158C4.24763 9.82152 4.57023 9.48099 5.00037 9.19423C5.43051 8.90747 6.02195 8.76409 6.7747 8.76409C7.92174 8.76409 8.74617 9.10462 9.248 9.78568C9.74983 10.4309 10.0007 11.1657 10.0007 11.9901C10.0007 13.1013 9.58853 14.0512 8.76409 14.8398C7.97551 15.6284 6.88223 16.0227 5.48428 16.0227Z" fill="url(#paint0_linear_3391_2020)"/>
<defs>
<linearGradient id="paint0_linear_3391_2020" x1="11.6138" y1="24.034" x2="26.5919" y2="2.32078" gradientUnits="userSpaceOnUse">
<stop stop-color="#0273FF"/>
<stop offset="1" stop-color="#013FFF"/>
</linearGradient>
</defs>
</svg>
