<svg width="32" height="33" viewBox="0 0 32 33" fill="none" xmlns="http://www.w3.org/2000/svg">
<path d="M16 0.448242C12.8356 0.448242 9.74206 1.38662 7.11088 3.14472C4.4797 4.90282 2.42894 7.40168 1.21794 10.3253C0.00693901 13.2488 -0.309922 16.466 0.307438 19.5696C0.924799 22.6734 2.44866 25.5242 4.6863 27.762C6.92394 29.9996 9.77486 31.5234 12.8786 32.1408C15.9822 32.7582 19.1994 32.4412 22.123 31.2302C25.0466 30.0192 27.5454 27.9686 29.3036 25.3374C31.0616 22.7062 32 19.6128 32 16.4482C32 12.2048 30.3142 8.13512 27.3138 5.13454C24.3132 2.13394 20.2434 0.448242 16 0.448242ZM23.86 11.4082L21.24 23.7882C21.04 24.6682 20.52 24.8682 19.78 24.4682L15.78 21.5082L13.78 23.3682C13.6858 23.4912 13.5648 23.5912 13.4262 23.6606C13.2876 23.7298 13.135 23.7666 12.98 23.7682L13.26 19.7682L20.66 13.0682C21 12.7882 20.66 12.6282 20.18 12.9082L11.1 18.6082L7.1 17.3682C6.24 17.1082 6.22 16.5082 7.28 16.1082L22.7 10.1082C23.46 9.88823 24.1 10.3282 23.86 11.4082Z" fill="url(#paint0_linear_0_1090)"/>
<defs>
<linearGradient id="paint0_linear_0_1090" x1="-14.2703" y1="-2.57878" x2="32" y2="28.3401" gradientUnits="userSpaceOnUse">
<stop stop-color="#FAFAFA"/>
<stop offset="0.958129" stop-color="#D7DBE0"/>
</linearGradient>
</defs>
</svg>
