<svg width="32" height="33" viewBox="0 0 32 33" fill="none" xmlns="http://www.w3.org/2000/svg">
<circle cx="16" cy="16.4482" r="16" fill="url(#paint0_linear_0_1091)"/>
<g clip-path="url(#clip0_0_1091)">
<path d="M21.1407 17.5674C20.8691 17.2244 20.9468 17.0718 21.1407 16.7652C21.1442 16.7617 23.3863 13.6635 23.6173 12.6128L23.6187 12.6121C23.7335 12.2292 23.6187 11.9478 23.0636 11.9478H21.2268C20.7592 11.9478 20.5436 12.1893 20.4281 12.4595C20.4281 12.4595 19.4929 14.6981 18.1699 16.1492C17.7429 16.5685 17.5455 16.7029 17.3124 16.7029C17.1976 16.7029 17.0191 16.5685 17.0191 16.1856V12.6121C17.0191 12.1529 16.8882 11.9478 16.5011 11.9478H13.6129C13.3196 11.9478 13.1453 12.162 13.1453 12.3615C13.1453 12.7969 13.8068 12.897 13.8754 14.122V16.7799C13.8754 17.3623 13.7697 17.4694 13.5352 17.4694C12.9108 17.4694 11.3953 15.2217 10.4972 12.6492C10.3159 12.1501 10.1388 11.9485 9.6677 11.9485H7.8302C7.3059 11.9485 7.2002 12.19 7.2002 12.4602C7.2002 12.9376 7.8246 15.3113 10.1038 18.4473C11.6228 20.5879 13.762 21.7478 15.708 21.7478C16.8777 21.7478 17.0205 21.4902 17.0205 21.0471C17.0205 19.0017 16.9148 18.8085 17.5007 18.8085C17.7723 18.8085 18.2399 18.9429 19.3319 19.9754C20.58 21.1997 20.7851 21.7478 21.4837 21.7478H23.3205C23.8441 21.7478 24.1094 21.4902 23.9568 20.982C23.6075 19.9131 21.2471 17.7144 21.1407 17.5674Z" fill="#1B1B29"/>
</g>
<defs>
<linearGradient id="paint0_linear_0_1091" x1="-14.2703" y1="-2.57878" x2="32" y2="28.3401" gradientUnits="userSpaceOnUse">
<stop stop-color="#FAFAFA"/>
<stop offset="0.958129" stop-color="#D7DBE0"/>
</linearGradient>
<clipPath id="clip0_0_1091">
<rect width="16.8" height="16.8" fill="white" transform="translate(7.2002 7.64795)"/>
</clipPath>
</defs>
</svg>
