<svg width="35" height="29" viewBox="0 0 35 29" fill="none" xmlns="http://www.w3.org/2000/svg">
<path fill-rule="evenodd" clip-rule="evenodd" d="M23.8262 15.6549C23.8145 15.6399 14.7816 4.12242 14.7697 4.10728C11.963 0.528596 6.77297 -0.103904 3.17734 2.69455C-0.418203 5.493 -1.05765 10.6628 1.74903 14.2415C1.76074 14.2565 10.7936 25.774 10.8055 25.7891C13.6122 29.3679 18.8023 30.0004 22.3978 27.2019C25.9934 24.4034 26.6329 19.2336 23.8262 15.6549Z" fill="white"/>
<path fill-rule="evenodd" clip-rule="evenodd" d="M31.8227 2.69459C28.2271 -0.103885 23.0371 0.528541 20.2303 4.1073C20.2199 4.12055 11.184 15.6417 11.1738 15.655C8.36702 19.2337 9.00663 24.4034 12.6022 27.202C16.1978 30.0004 21.3879 29.3679 24.1946 25.7892C24.2048 25.776 33.2407 14.2547 33.251 14.2415C36.0577 10.6628 35.4181 5.49296 31.8227 2.69459Z" fill="white"/>
</svg>
